<svg width="64" height="45" viewBox="0 0 64 45" xmlns="http://www.w3.org/2000/svg">
    <path d="M62.695 7.031c.547 2.11.938 5.313 1.172 9.61l.117 5.859-.117 5.86c-.234 4.374-.625 7.616-1.172 9.726-.39 1.328-1.094 2.5-2.11 3.515a8.123 8.123 0 01-3.632 2.11c-2.031.547-6.797.937-14.297 1.172L31.992 45l-10.664-.117c-7.5-.235-12.266-.625-14.297-1.172a8.123 8.123 0 01-3.633-2.11c-1.015-1.015-1.718-2.187-2.109-3.515-.547-2.11-.937-5.352-1.172-9.727L0 22.5c0-1.718.04-3.67.117-5.858.235-4.297.625-7.5 1.172-9.61A8.123 8.123 0 013.4 3.398 8.123 8.123 0 017.03 1.29C9.062.742 13.828.352 21.328.117L31.992 0l10.664.117c7.5.235 12.266.625 14.297 1.172a8.123 8.123 0 013.633 2.11 8.123 8.123 0 012.11 3.632zM25.43 32.11l16.757-9.61-16.757-9.491v19.101z" fill="#222" fill-rule="evenodd"/>
</svg>
