<svg width="233" height="240" viewBox="0 0 233 240" xmlns="http://www.w3.org/2000/svg">
    <g stroke="#FF6A57" stroke-width="13" fill="none" fill-rule="evenodd" stroke-linecap="round" stroke-linejoin="round">
        <path d="M81.63 15.032L212.98 62.84c10.367 3.773 15.705 15.236 11.935 25.593l-47.808 131.35c-3.77 10.358-15.226 15.708-25.594 11.935L20.163 183.91C9.807 180.14 4.46 168.674 8.23 158.316l47.808-131.35c3.77-10.357 15.236-15.704 25.593-11.934zM191.663 33.83l-13.659 37.53M116.606 6.512l-13.659 37.529"/>
        <path d="M161.295 117.167c-5.828-11.195-20.004-16.355-31.664-11.525l-7.923 3.29-3.955-7.613c-5.828-11.195-20.004-16.355-31.665-11.525-13.12 5.456-18.438 20.064-11.887 32.66l25.04 48.203 50.167-20.83c13.114-5.438 18.435-20.055 11.887-32.66z"/>
    </g>
</svg>
