<svg width="200" height="206" viewBox="0 0 200 206" xmlns="http://www.w3.org/2000/svg">
    <g fill="none" fill-rule="evenodd">
        <path d="M.002.506h199.907v204.661H.002z"/>
        <path d="M193.584 79.185a15.838 15.838 0 002.578-8.671c0-7.799-5.615-14.254-13.005-15.608a20.89 20.89 0 00.355-3.779c0-11.034-8.603-19.978-19.21-19.978-.855 0-1.69.078-2.515.196-1.395-9.255-9.345-16.355-18.968-16.355-2.96 0-5.75.692-8.252 1.89C126.357 6.517 113.544.037 99.337.533 87.499.95 76.947 6.122 69.434 14.148c-3.92-1.684-8.252-2.58-12.797-2.423-15.18.534-27.298 12.315-28.72 27.07-12.82 3.75-22.208 15.565-22.208 29.629 0 4.177.838 8.16 2.335 11.796A18.312 18.312 0 00.002 95.404a18.324 18.324 0 009.562 16.11c-3.695 3.354-6.027 8.183-6.027 13.571 0 8.014 5.14 14.81 12.292 17.3 1.2 11.68 11.048 20.79 23.018 20.79 2.107 0 4.152-.287 6.09-.818 0 0 3.765 10.971 5.987 21.87 2.163 10.636 5.325 20.795 5.325 20.795s2.463.328 2.438 0c-.25-3.31-2.723-12.111-2.13-22.897 2.84-21.738 14.69-30.35 18.91-32.767a18.267 18.267 0 0015.192-11.813c5.87 6.455 14.298 10.53 23.698 10.53 12.847 0 23.897-7.585 29.015-18.522 5.96 4.81 13.525 7.701 21.77 7.701 19.205 0 34.767-15.605 34.767-34.851 0-2.674-.325-5.268-.897-7.769-.388-5.723-2.348-10.999-5.428-15.45z" fill="#EE5A47"/>
        <path d="M106.91 93.39h-.988v-9.122h1.823c2.35 0 2.577.38 2.577 4.446 0 4.104-.415 4.676-3.413 4.676m7.053 11.63v-5.97c0-2.583-.87-3.913-3.45-4.18v-.074c3.11-.95 3.603-2.546 3.603-6.233 0-6.004-.57-7.488-6.108-7.488h-5.873v27.441h3.788V96.582h1.293c2.502 0 2.957.685 2.957 3.268v6.195c0 1.103.075 1.787.455 2.471h3.563c-.228-1.14-.228-2.508-.228-3.496" fill="#FFF"/>
        <path d="M0 205.167h199.91V.506H0z"/>
        <path fill="#FFF" d="M95.65 108.518h3.792V81.077H95.65zM89.28 102.168c0 2.356-1.06 3.612-2.655 3.612-1.555 0-2.615-1.256-2.615-3.612V87.764c0-2.7.91-3.952 2.615-3.952 1.745 0 2.655 1.253 2.655 3.952v14.404zm-2.655-21.32c-5.155 0-6.405 3.382-6.405 7.222v13.87c0 4.258 1.555 6.804 6.405 6.804 5.198 0 6.448-3.383 6.448-7.222V87.65c0-4.258-1.555-6.804-6.448-6.804zM71.348 93.39h-1.972v-9.122h1.972c2.575 0 2.845.418 2.845 4.56 0 4.143-.27 4.562-2.845 4.562m.49-12.315h-6.255v27.441h3.793V96.582h2.462c5.16 0 6.143-1.405 6.143-7.753s-.983-7.754-6.143-7.754M51.14 103.84c0 3.42 2.386 4.904 5.876 4.904 4.51 0 6.18-2.471 6.18-6.766 0-3.306-.68-4.636-4.398-8.513-3.488-3.649-3.867-4.79-3.867-6.651 0-2.128.722-3.002 2.275-3.002 1.48 0 2.122.912 2.122 2.47v2.166h3.563v-2.584c0-1.937-.453-2.89-1.098-3.496-.913-.837-2.387-1.521-4.438-1.521-4.13 0-6.214 1.94-6.214 6.423 0 3.724 2.01 5.93 4.432 8.362 3.945 3.915 4.057 4.674 4.057 6.992 0 1.787-.492 3.155-2.5 3.155-1.517 0-2.2-1.14-2.2-2.964v-2.243h-3.79v3.268zM39.615 108.517h10.312v-3.193h-6.522v-9.275h6.142v-3.192h-6.142v-8.589h6.522v-3.192H39.615zM32.259 87.842h2.73l2.122-6.766h-4.02zM26.08 99.129c0 4.711-.533 6.195-3.338 6.195h-1.82V84.268h1.517c3.223 0 3.64 1.368 3.64 5.436v9.425zm-2.845-18.054H17.13v27.441h5.497c5.992 0 7.242-2.205 7.242-9.237v-8.17c0-7.981-.492-10.034-6.634-10.034z"/>
        <path fill="#002D5C" d="M120.743 108.468h6.21V81.525h-6.21zM143.238 108.829c-9.915 0-12.583-6.747-12.583-12.854 0-8.74 4.738-14.647 13.618-14.647 1.872 0 3.822.238 5.495.679l-.718 5.626c-1.51-.439-3.225-.717-4.897-.717-4.34 0-6.688 3.153-6.688 8.022 0 5.31 2.15 8.222 7.008 8.222 1.392 0 3.425-.358 4.697-.957l.718 5.548c-1.953.68-4.34 1.078-6.65 1.078M179.036 108.469l-1.715-11.097a94.032 94.032 0 01-.792-6.267h-.08a74.226 74.226 0 01-1.553 6.347l-3.307 11.017h-5.973l-3.188-10.06c-.714-2.315-1.39-4.909-1.75-7.304h-.04c-.237 2.516-.517 4.59-.794 6.826l-1.356 10.538h-6.25l4.3-26.942h7.128l3.743 11.813c.597 1.877 1.035 3.754 1.435 5.869h.077c.4-2.155.877-3.832 1.515-5.91l3.822-11.772h7.008l4.3 26.942h-6.53z"/>
        <path d="M162.652 60.835h-.985v-9.122h1.82c2.35 0 2.577.38 2.577 4.446 0 4.104-.415 4.676-3.412 4.676m7.052 11.63v-5.97c0-2.583-.87-3.914-3.45-4.18v-.074c3.113-.95 3.605-2.546 3.605-6.233 0-6.004-.572-7.488-6.107-7.488h-5.873v27.441h3.788V64.027h1.29c2.502 0 2.96.685 2.96 3.268v6.195c0 1.103.075 1.787.452 2.471h3.563c-.228-1.14-.228-2.508-.228-3.496M155.186 48.52h-3.795v21.893c0 1.862-.68 2.811-2.612 2.811-1.975 0-2.655-.95-2.655-2.811V48.52h-3.793v21.246c0 3.193 1.25 6.423 6.448 6.423 5.155 0 6.407-3.23 6.407-6.423V48.52zM130.503 75.961h10.313V72.77h-6.52v-9.275h6.14V60.3h-6.14v-8.588h6.52V48.52h-10.313zM120.533 60.835h-.988v-9.122h1.82c2.35 0 2.578.38 2.578 4.446 0 4.104-.415 4.676-3.41 4.676m7.05 11.63v-5.97c0-2.583-.868-3.914-3.45-4.18v-.074c3.112-.95 3.602-2.546 3.602-6.233 0-6.004-.567-7.488-6.105-7.488h-5.875v27.441h3.79V64.027h1.29c2.503 0 2.958.685 2.958 3.268v6.195c0 1.103.075 1.787.455 2.471h3.562c-.227-1.14-.227-2.508-.227-3.496M104.078 75.961h4.397l5.573-27.44h-3.788l-3.945 21.814h-.078l-3.942-21.815h-3.79zM96.91 48.52h-3.79v21.893c0 1.862-.683 2.811-2.618 2.811-1.97 0-2.652-.95-2.652-2.811V48.52h-3.793v21.246c0 3.193 1.252 6.423 6.445 6.423 5.157 0 6.407-3.23 6.407-6.423V48.52zM77.689 69.614c0 2.356-1.06 3.612-2.655 3.612-1.556 0-2.616-1.256-2.616-3.612V55.21c0-2.7.91-3.952 2.615-3.952 1.745 0 2.656 1.253 2.656 3.952v14.404zm-2.655-21.32c-5.156 0-6.406 3.382-6.406 7.222v13.87c0 4.258 1.553 6.804 6.406 6.804 5.194 0 6.447-3.383 6.447-7.222V55.097c0-4.258-1.555-6.804-6.447-6.804zM54.978 69.386c0 4.257 1.555 6.803 6.333 6.803 4.398 0 5.572-2.205 5.572-5.092v-3.042h-3.562v1.902c0 2.28-.91 3.268-2.315 3.268-1.212 0-2.235-.572-2.235-3.802V55.971c0-3.308.377-4.714 2.35-4.714 1.593 0 2.2 1.103 2.2 2.85v1.901h3.563v-2.736c0-3.08-1.746-4.98-5.498-4.98-5.155 0-6.408 3.384-6.408 7.223v13.87zM43.453 75.961h10.312V72.77h-6.52v-9.275h6.143V60.3h-6.143v-8.588h6.52V48.52H43.452zM46.639 46.62h2.274l4.133-5.51h-3.792zM36.97 66.574c0 4.71-.532 6.194-3.337 6.194h-1.82V51.713h1.518c3.222 0 3.64 1.368 3.64 5.435v9.426zM34.127 48.52H28.02v27.441h5.497c5.993 0 7.243-2.205 7.243-9.237v-8.17c0-7.981-.493-10.034-6.635-10.034zM27.051 141.434v-3.496l6.898-13.44c.31-.596.575-1.313.795-2.155.217-.842.327-1.77.327-2.78 0-.801-.185-1.403-.562-1.804-.373-.4-.843-.604-1.413-.604-.57 0-1.052.196-1.452.584-.4.389-.6.985-.6 1.787v1.787h-4.11v-1.631c0-1.113.15-2.025.447-2.74a5.369 5.369 0 011.26-1.844c.543-.519 1.213-.917 2.013-1.203a7.228 7.228 0 012.442-.428c.828 0 1.603.117 2.325.348.723.233 1.37.611 1.938 1.128.542.518.982 1.165 1.317 1.942.335.777.505 1.721.505 2.834 0 1.01-.142 2.06-.427 3.148-.285 1.087-.645 2.06-1.085 2.912l-6.238 11.963h7.75v3.692h-12.13zM49.41 119.526c0-.802-.195-1.399-.58-1.787a1.954 1.954 0 00-1.438-.582c-.568 0-1.053.193-1.453.582-.4.388-.6.985-.6 1.787v16.158c0 .805.2 1.399.6 1.787.4.389.886.584 1.453.584.57 0 1.047-.195 1.438-.584.385-.388.58-.982.58-1.787v-16.158zm4.107 16.003c0 1.115-.155 2.027-.465 2.74a5.611 5.611 0 01-1.28 1.844c-.54.518-1.195.92-1.957 1.205a6.902 6.902 0 01-2.423.426c-.85 0-1.665-.143-2.44-.426-.775-.286-1.432-.687-1.975-1.205a5.611 5.611 0 01-1.28-1.845c-.31-.712-.465-1.624-.465-2.739v-15.848c0-1.113.155-2.025.465-2.74.31-.708.737-1.325 1.28-1.844.543-.518 1.2-.917 1.975-1.202a7.005 7.005 0 012.44-.429c.852 0 1.66.143 2.422.429.763.285 1.418.684 1.958 1.202.543.52.97 1.136 1.28 1.845.31.714.465 1.626.465 2.739v15.848zM60.84 141.434v-22.84l-4.145 3.185v-4.661l4.145-3.34h4.11v27.656zM78.238 122.245c0-1.088-.033-2-.095-2.737-.065-.74-.24-1.288-.525-1.651-.363-.467-.853-.7-1.473-.7a2.07 2.07 0 00-.832.176c-.27.115-.498.29-.678.524-.285.363-.46.912-.522 1.651-.068.737-.098 1.65-.098 2.737 0 1.087.03 2 .098 2.739.062.739.237 1.288.522 1.651.18.233.408.409.678.524.27.115.55.175.832.175.62 0 1.11-.235 1.473-.699.285-.363.46-.912.525-1.651.062-.74.095-1.652.095-2.74m4.11-.077c0 1.243-.1 2.416-.293 3.516a15.243 15.243 0 01-.832 3.01l-4.843 12.74h-4.262l4.532-11.187a1.915 1.915 0 01-.795.369 4.066 4.066 0 01-.872.098c-.75 0-1.433-.136-2.053-.409-.62-.27-1.162-.704-1.627-1.3a4.345 4.345 0 01-.64-1.028 6.944 6.944 0 01-.425-1.34c-.118-.52-.2-1.141-.253-1.865a36.858 36.858 0 01-.077-2.604c0-.932.025-1.73.077-2.388.053-.662.135-1.238.253-1.73a6.565 6.565 0 011.025-2.368 4.662 4.662 0 012.112-1.689 7.305 7.305 0 012.77-.526c1.11 0 2.073.196 2.888.581a4.97 4.97 0 011.957 1.634c.258.389.478.79.658 1.203.182.416.322.875.427 1.381.103.504.173 1.073.213 1.707.04.636.06 1.368.06 2.195" fill="#FFF"/>
    </g>
</svg>
