<svg width="83" height="86" viewBox="0 0 83 86" xmlns="http://www.w3.org/2000/svg">
    <g fill="none" fill-rule="evenodd">
        <path d="M80.76 42.53c0 21.097-17.104 38.201-38.203 38.201-21.099 0-38.2-17.104-38.2-38.201 0-21.1 17.101-38.203 38.2-38.203 21.1 0 38.202 17.104 38.202 38.203" fill="#27347D"/>
        <path d="M0 0h82.998v85.063H0z"/>
        <path d="M46.19 84.903C22.787 86.923 2.179 69.59.16 46.187-1.858 22.785 15.474 2.177 38.876.158a42.529 42.529 0 0124.449 5.27c3.383 1.891 3.105 2.006 3.049 2.289a.327.327 0 01-.291.256c-.228 0-.313-.199-3.199-1.728a41.175 41.175 0 00-22.842-4.647 41.825 41.825 0 00-10.363 2.246A41.141 41.141 0 006.225 24.84a40.323 40.323 0 00-1.727 31.195c6.248 17.549 23.57 28.654 42.124 27.008a41.564 41.564 0 0034.514-24.82c1.294-2.984 1.244-3.034 1.486-3.056a.33.33 0 01.29.128c.136.177.278.2-.972 3.263a42.595 42.595 0 01-35.75 26.339" fill="#27347D"/>
        <path d="M29.438 30.695c1.07-.237 1.711-.71 1.926-1.421.213-.71.125-2.015-.265-3.916-.444-2.009-.918-3.353-1.42-4.03a2.007 2.007 0 00-2.203-.712l-.221.05 2.183 10.03zM25.13 19.587l2.132-.477a5.56 5.56 0 011.713-.148c.463.055.904.228 1.28.504a4.839 4.839 0 011.556 1.877 16.25 16.25 0 011.109 3.553c.289 1.174.435 2.38.434 3.59a3.958 3.958 0 01-.676 2.232c-.507.706-1.585 1.243-3.233 1.613l-1.422.312-2.893-13.056zM39.97 23.667a21.36 21.36 0 00-1.3-4.422 1.293 1.293 0 00-1.486-.838 1.272 1.272 0 00-1.023 1.3c.045 1.417.254 2.826.625 4.195.242 1.34.646 2.648 1.202 3.894.236.578.853.903 1.464.774a1.266 1.266 0 001.002-1.25 13.237 13.237 0 00-.462-3.653h-.021zm1.791-.598c.512 2.303.62 3.995.32 5.075a2.74 2.74 0 01-2.253 2.026 2.844 2.844 0 01-3.02-.967c-.74-.906-1.399-2.658-1.976-5.259-.512-2.318-.623-4.014-.334-5.089a2.77 2.77 0 012.288-2.033 2.845 2.845 0 012.68.583c.548.56.97 1.232 1.236 1.969.459 1.2.816 2.436 1.066 3.695h-.007zM42.585 15.72l1.643-.363 2.899 4.813a48.458 48.458 0 012.382 4.406 48.483 48.483 0 01-.918-2.666c-.246-.8-.449-1.56-.61-2.28l-1.08-4.863 1.755-.39 2.893 13.035-1.643.362-3.268-5.43a32.951 32.951 0 01-.883-1.57c-.291-.54-1.072-2.21-1.137-2.353.05.142.598 1.933.598 1.933s.511 1.784.547 1.919l1.421 6.098-1.74.385-2.859-13.036M38.734 35.849a4.266 4.266 0 00-.526-1.308.64.64 0 00-.71-.235.634.634 0 00-.52.504c-.065.474-.05.955.043 1.421l1.713-.382zm.498 1.754l1.271-.283c.251 1.606-.288 2.553-1.62 2.842-.35.08-.715.08-1.065 0a1.755 1.755 0 01-.847-.468 3.16 3.16 0 01-.647-.982 8.006 8.006 0 01-.476-1.52 5.102 5.102 0 01-.042-2.758 1.908 1.908 0 011.499-1.236c1.483-.328 2.487.695 3.013 3.07v.156l-3.12.711c.318 1.422.792 2.07 1.422 1.947.63-.123.82-.623.57-1.5l.042.021zM41.264 32.48l1.364-.306.171.774a1.804 1.804 0 011.323-1.222 1.417 1.417 0 011.42.356c.282.407.464.874.533 1.364l1.059 4.819-1.364.306-1.002-4.499a1.975 1.975 0 00-.399-.931.71.71 0 00-.71-.15.984.984 0 00-.377.164.603.603 0 00-.206.298c-.045.15-.062.306-.05.463.015.224.048.447.1.667l.966 4.35-1.364.306-1.492-6.731M16.026 48.144l.348 1.578a2.8 2.8 0 00-1.202-.086 1.886 1.886 0 00-1.001.548 2.271 2.271 0 00-.526 1.116 6.14 6.14 0 00-.072 1.72c.072.793.198 1.582.377 2.36.716 3.216 1.9 4.638 3.554 4.264.358-.096.691-.266.981-.497l.354 1.612a2.909 2.909 0 01-1.341.669c-2.64.582-4.439-1.28-5.396-5.587-.516-2.33-.577-4.136-.185-5.415a3.262 3.262 0 012.581-2.36 3.105 3.105 0 011.535.063M24.142 53.489a21.349 21.349 0 00-1.3-4.42 1.294 1.294 0 00-1.465-.853 1.272 1.272 0 00-1.024 1.3c.04 1.42.246 2.828.613 4.2.241 1.343.645 2.65 1.201 3.895a1.29 1.29 0 001.465.774 1.264 1.264 0 001.001-1.25 13.319 13.319 0 00-.462-3.646h-.03zm1.827-.598c.511 2.303.618 3.995.32 5.075a2.74 2.74 0 01-2.253 2.018 2.838 2.838 0 01-3.02-.966c-.74-.9-1.406-2.651-1.998-5.252-.513-2.322-.623-4.018-.334-5.089a2.762 2.762 0 012.282-2.025 2.843 2.843 0 012.678.582 5.46 5.46 0 011.23 1.97c.46 1.199.816 2.435 1.066 3.694l.029-.007zM26.765 45.543l1.634-.363 2.9 4.813a48.774 48.774 0 012.389 4.399 45.645 45.645 0 01-.918-2.666 31.419 31.419 0 01-.611-2.28l-1.06-4.862 1.757-.393 2.864 13.043-1.642.363-3.261-5.43a31.517 31.517 0 01-.882-1.564c-.284-.533-1.066-2.217-1.137-2.352.05.143.597 1.933.597 1.933s.51 1.79.54 1.92l1.421 6.096-1.678.378-2.913-13.035M55.706 39.125l2.906 4.826a48.527 48.527 0 012.39 4.406 48.47 48.47 0 01-.918-2.665 30.889 30.889 0 01-.612-2.282l-1.08-4.86 1.757-.392 2.892 13.035-1.642.364-3.29-5.474a34.342 34.342 0 01-.882-1.564 93.402 93.402 0 01-1.138-2.351c.05.141.597 1.932.597 1.932s.512 1.79.54 1.92l1.422 6.097-1.741.384-2.836-13.014 1.635-.362zM35.5 43.602l4.69-1.038.335 1.487-2.942.653.916 4.115 2.65-.583.328 1.486-2.65.583 1.321 5.948-1.755.385zM42.117 42.138l1.755-.39 2.885 13.035-1.754.39zM52.003 49.53l-.838-2.025a57.141 57.141 0 01-1.635-4.385c.095.8.168 1.615.22 2.444.052.83.095 1.713.128 2.652l.05 1.74 2.075-.426zm-3.697-8.763l1.367-.306 5.684 12.416-1.74.384-1.053-2.43-2.586.576.063 2.65-1.692.377-.048-13.667h.005zM67.796 36.666l.348 1.577a2.799 2.799 0 00-1.21-.078 1.889 1.889 0 00-1 .548 2.28 2.28 0 00-.526 1.116 6.173 6.173 0 00-.071 1.72c.07.794.196 1.582.376 2.36.716 3.216 1.9 4.638 3.554 4.263a2.72 2.72 0 00.98-.504l.356 1.613c-.38.335-.84.565-1.336.669-2.64.582-4.438-1.28-5.395-5.587-.526-2.321-.59-4.118-.192-5.388a3.249 3.249 0 012.58-2.36 3.069 3.069 0 011.536.066M69.643 36.034l4.67-1.032.327 1.487-2.914.646.917 4.123 2.587-.57.327 1.486-2.587.575.988 4.45 2.913-.646.327 1.484-4.662 1.031zM25.216 65.742l-.62.76a1.752 1.752 0 00-.084-.61.874.874 0 00-.285-.385.908.908 0 00-.71-.206c-.27.037-.512.18-.675.399-.172.197-.262.45-.257.71.02.258.149.498.356.654a.946.946 0 00.44.206c.213.023.427.008.633-.043l-.611.761a1.939 1.939 0 01-.846-.384 1.716 1.716 0 01-.696-1.13c-.06-.447.071-.899.362-1.243.279-.36.697-.588 1.152-.626.46-.044.919.098 1.272.398.24.187.43.432.554.71M25.735 67.846a1.083 1.083 0 00-.179.782c.14.514.66.828 1.18.71.532-.178.87-.7.81-1.258a.903.903 0 00-.44-.604.883.883 0 00-.711-.114 1.025 1.025 0 00-.66.484m-.634-.406a1.597 1.597 0 011.024-.745 1.75 1.75 0 012.07 1.264 1.714 1.714 0 01-1.26 2.054c-.444.101-.91.02-1.293-.228a1.63 1.63 0 01-.769-1.051 1.663 1.663 0 01.222-1.294M29.451 68.23l.711.277-.113.27a1.59 1.59 0 01.454-.143c.14-.006.278.02.406.08a.978.978 0 01.61.76c.316-.203.71-.232 1.053-.078.668.273.833.814.496 1.62l-.752 1.826-.712-.284.676-1.642c.1-.2.15-.423.142-.646a.403.403 0 00-.278-.32.483.483 0 00-.497.042c-.188.171-.33.39-.412.633l-.625 1.528-.71-.284.675-1.635c.218-.526.175-.851-.128-.973a.488.488 0 00-.512.042 1.413 1.413 0 00-.413.625l-.625 1.528-.71-.284 1.214-2.957M34.874 68.826a.477.477 0 01.874-.106c.069.108.086.24.05.363a.461.461 0 01-.227.29.474.474 0 01-.654-.178.465.465 0 01-.043-.369m.49 1.522l-.83 3.084-.711-.192.831-3.085.71.193M37.376 71.492l-.463 2.466-.724-.142.455-2.46-.306-.057.129-.681.305.056.221-1.151.724.135-.213 1.159.561.1-.128.682zM41.05 72.38a.71.71 0 00-.71-.646.686.686 0 00-.256 0 .69.69 0 00-.405.27.796.796 0 00-.12.24l1.492.137zm.711.668l-2.282-.17a.982.982 0 00.207.647.781.781 0 00.56.27.748.748 0 00.463-.1c.173-.126.32-.279.442-.454l.596.39c-.098.144-.21.278-.334.399a1.67 1.67 0 01-.362.262c-.13.065-.27.111-.413.136a1.97 1.97 0 01-.461 0 1.51 1.51 0 01-1.11-.54 1.74 1.74 0 01-.34-1.26c.012-.447.195-.875.512-1.194a1.6 1.6 0 012.232.158c.258.374.362.835.29 1.286v.17zM45.25 71.285l.05.982a1.766 1.766 0 00-.475-.398.862.862 0 00-.47-.093.899.899 0 00-.71.328 1.02 1.02 0 00-.241.71c.005.265.112.52.298.71a.904.904 0 00.71.257.944.944 0 00.463-.135c.172-.126.32-.28.44-.455l.05.974a1.947 1.947 0 01-.89.277 1.731 1.731 0 01-1.263-.42 1.592 1.592 0 01-.554-1.173c-.031-.454.131-.9.446-1.23.314-.341.752-.54 1.215-.554a1.87 1.87 0 01.904.185M45.92 68.713l.71-.135.469 2.572c.19-.261.472-.442.79-.505.318-.072.653-.002.916.193.256.238.415.56.448.91l.355 1.925-.74.128-.34-1.862a.902.902 0 00-.235-.525.525.525 0 00-.462-.093.6.6 0 00-.49.334 1.655 1.655 0 000 .847l.277 1.52-.71.135-1.003-5.451M51.094 71.612c.071.26.236.485.461.634a.816.816 0 00.712.078.844.844 0 00.539-.477c.19-.523 0-1.109-.462-1.421a.831.831 0 00-.71-.072.815.815 0 00-.519.47 1.062 1.062 0 00-.007.788h-.014zm1.186-2.074l.71-.228.982 3.071-.711.228-.108-.32a1.42 1.42 0 01-1.989.589 1.783 1.783 0 01-.789-1.03 1.742 1.742 0 01.035-1.274c.16-.38.48-.668.875-.789a1.357 1.357 0 011.094.128l-.112-.355.013-.02zM54.163 68.826l.67-.312.12.255a1.39 1.39 0 01.2-.418.811.811 0 01.312-.235 1.18 1.18 0 01.631-.085v.753a.719.719 0 00-.432.035c-.366.171-.417.53-.157 1.081l.712 1.5-.67.312-1.386-2.886M57.823 67.682l1.273 2.168-.639.37-1.266-2.162-.27.158-.355-.591.277-.163-.596-1.01.639-.37.59 1.01.497-.291.35.59zM61.065 66.097a.713.713 0 00-.952 0 .684.684 0 00-.178.185.681.681 0 00-.106.22.699.699 0 000 .25c.007.09.028.178.062.262l1.174-.917zm.967-.007l-1.84 1.364a.97.97 0 00.575.355.777.777 0 00.604-.162.761.761 0 00.292-.384c.046-.208.058-.421.035-.633l.71-.092a2.49 2.49 0 010 .519c-.015.15-.05.3-.106.44-.055.134-.129.26-.221.37-.1.118-.214.223-.34.312-.336.27-.77.384-1.195.314a1.729 1.729 0 01-1.08-.711 1.767 1.767 0 01-.391-1.237 1.6 1.6 0 011.792-1.344c.438.108.818.377 1.065.754l.1.142v-.007zM63.88 65.848a.456.456 0 11.796-.29.435.435 0 01-.143.313.45.45 0 01-.646-.022M65.01 62.992c.192.184.445.289.71.297a.994.994 0 00.917-1.044 1.2 1.2 0 00-1.123-.974.99.99 0 00-.903 1.044c.04.27.186.514.406.677h-.008zm-.506.56a1.586 1.586 0 01-.568-1.144c-.05-.94.654-1.75 1.592-1.833a1.712 1.712 0 011.82 1.578c.029.456-.128.905-.433 1.244a1.632 1.632 0 01-1.16.59 1.653 1.653 0 01-1.251-.435zM66.11 59.117l.413-.61.234.163a1.434 1.434 0 01-.042-.462.828.828 0 01.142-.362 1.19 1.19 0 01.49-.39l.37.66a.711.711 0 00-.355.256c-.222.336-.083.673.42 1.01l1.37.922-.41.612-2.653-1.791M70.09 55.5a1.072 1.072 0 00-.774-.12.823.823 0 00-.547.44.797.797 0 000 .711c.249.459.753.72 1.273.66a.793.793 0 00.575-.447.809.809 0 000-.71 1.096 1.096 0 00-.511-.505l-.015-.03zm1.686.092l.348.2c.086.053.169.114.249.177.184.148.326.342.412.562.162.422.121.896-.106 1.287a1.586 1.586 0 01-.79.774c-.352.148-.75.148-1.102 0l.343-.661c.124.044.258.06.39.042a.798.798 0 00.576-.455c.246-.473.076-.864-.512-1.172l-.398-.206a1.422 1.422 0 01-.995 1.82 1.741 1.741 0 01-1.258-.178 1.846 1.846 0 01-.874-.888 1.355 1.355 0 01.05-1.223c.164-.355.48-.617.859-.711l-.32-.163.342-.654 2.771 1.422.015.027z" fill="#FFF"/>
    </g>
</svg>
