<svg width="86" height="99" viewBox="0 0 86 99" xmlns="http://www.w3.org/2000/svg">
    <g fill="none" fill-rule="evenodd">
        <path d="M0 2.959h39.425v63.945H0z"/>
        <path d="M6.061 15.45c.003-6.284 5.396-10.275 13.654-10.272 8.26.002 13.823 3.996 13.821 10.28-.002 6.285-5.511 10.276-13.997 10.273-.793 0-.722 1.54.514 1.54 10.886.004 19.371-4.81 19.372-11.811.002-7-8.82-12.497-19.709-12.501C8.831 2.955.002 8.448-.001 15.449-.005 29 27.051 34.865 12.83 65.789c-.348.817.781 1.613 1.249.724C30.254 36.184 6.058 28.88 6.06 15.45" fill="#FFF"/>
        <path d="M0 98.882h86V0H0z"/>
        <path fill="#FFF" d="M24.832 90.036h.668v-4.134h-.668zM28.363 90.037v-1.96c0-.38-.104-.6-.453-.6-.459 0-.795.484-.795 1.09v1.47h-.655v-3.045h.624c0 .16-.012.423-.042.595l.005.006c.178-.392.545-.66 1.06-.66.69 0 .904.434.904.973v2.13h-.648zM30.468 90.098c-.226 0-.453-.025-.642-.061l.018-.558c.189.055.428.098.66.098.356 0 .6-.152.6-.404 0-.613-1.333-.245-1.333-1.298 0-.527.428-.943 1.254-.943.177 0 .385.024.568.054l-.017.534a2.111 2.111 0 00-.594-.087c-.36 0-.538.148-.538.38 0 .588 1.346.288 1.346 1.298 0 .57-.508.987-1.322.987M33.514 90.092c-.648 0-.844-.25-.844-.931v-1.66h-.581v-.508h.581v-.968l.649-.177v1.145h.802v.508h-.796v1.458c0 .453.093.575.398.575.134 0 .282-.018.398-.048v.54a3.19 3.19 0 01-.607.066M34.825 90.037h.654v-3.044h-.654v3.044zm.33-3.498a.417.417 0 01-.423-.41c0-.227.19-.41.423-.41.225 0 .416.178.416.41 0 .227-.19.41-.416.41zM37.407 90.092c-.649 0-.844-.25-.844-.931v-1.66h-.583v-.508h.583v-.968l.647-.177v1.145h.802v.508h-.796v1.458c0 .453.093.575.4.575.133 0 .28-.018.396-.048v.54a3.168 3.168 0 01-.605.066M40.644 90.037c0-.16.011-.423.043-.594l-.007-.006c-.177.392-.545.662-1.059.662-.691 0-.905-.436-.905-.975v-2.132h.648v1.961c0 .38.104.6.453.6.459 0 .795-.484.795-1.09v-1.47h.656v3.044h-.624zM43.195 90.092c-.648 0-.845-.25-.845-.931v-1.66h-.581v-.508h.581v-.968l.648-.177v1.145h.802v.508h-.795v1.458c0 .453.092.575.398.575.134 0 .281-.018.397-.048v.54a3.178 3.178 0 01-.605.066M47.735 87.52a2.162 2.162 0 00-.484-.056c-.52 0-.875.32-.875 1.14 0 .612.19.955.605.955.485 0 .754-.576.754-1.096v-.943zm.03 2.517c0-.16.013-.398.043-.57h-.013c-.165.374-.52.631-.99.631-.747 0-1.12-.55-1.12-1.433 0-1.047.606-1.72 1.59-1.72.147 0 .294.011.46.023v-1.402h.648v4.47h-.618zM51.265 90.037c0-.16.012-.423.043-.594l-.006-.006c-.178.392-.545.662-1.06.662-.69 0-.903-.436-.903-.975v-2.132h.647v1.961c0 .38.103.6.452.6.46 0 .796-.484.796-1.09v-1.47h.656v3.044h-.625zM55.854 90.086c-1.383 0-1.891-.895-1.891-1.996 0-1.287.649-2.224 2.037-2.224.306 0 .624.05.913.117l-.074.611c-.3-.091-.593-.14-.894-.14-.862 0-1.253.66-1.253 1.525 0 .961.41 1.507 1.308 1.507.282 0 .643-.08.87-.19l.08.593a3.034 3.034 0 01-1.096.197M58.717 87.415c-.367 0-.625.27-.679.68h1.29c.013-.416-.226-.68-.611-.68m1.248 1.14h-1.94c-.018.704.294 1.022.9 1.022.312 0 .635-.073.887-.196l.061.521c-.305.128-.68.196-1.052.196-.948 0-1.469-.49-1.469-1.561 0-.92.502-1.605 1.39-1.605.868 0 1.24.593 1.24 1.316 0 .086-.005.19-.017.307M62.277 87.575c-.605-.11-.898.312-.898 1.225v1.237h-.655v-3.044h.624c0 .17-.019.441-.06.673h.01c.136-.41.44-.79 1.01-.733l-.03.642zM64.327 90.037h-.666l-1.139-3.045h.723l.568 1.611c.074.209.141.424.197.625h.005c.049-.19.11-.404.178-.6l.581-1.636h.703l-1.15 3.045zM67.007 87.415c-.367 0-.624.27-.68.68h1.29c.015-.416-.225-.68-.61-.68m1.248 1.14h-1.939c-.02.704.294 1.022.899 1.022a2.1 2.1 0 00.888-.196l.061.521a2.79 2.79 0 01-1.052.196c-.95 0-1.47-.49-1.47-1.561 0-.92.503-1.605 1.389-1.605.87 0 1.243.593 1.243 1.316 0 .086-.007.19-.019.307M70.623 88.658c-.954 0-1.162.289-1.162.551 0 .229.158.375.415.375.447 0 .747-.43.747-.863v-.063zm.043 1.379c0-.196.006-.398.03-.564l-.006-.005c-.146.361-.526.63-1.008.63-.52 0-.852-.295-.852-.778 0-.698.698-1.102 1.793-1.102v-.195c0-.381-.159-.576-.636-.576-.282 0-.648.085-.905.244l-.062-.557c.3-.115.679-.202 1.071-.202.93 0 1.186.404 1.186 1.03v1.242c0 .264.008.576.02.833h-.63zM74.08 90.037c0-.16.012-.423.044-.594l-.008-.006c-.176.392-.544.662-1.057.662-.692 0-.906-.436-.906-.975v-2.132h.649v1.961c0 .38.103.6.452.6.46 0 .796-.484.796-1.09v-1.47h.654v3.044h-.624zM25.952 94.766c-.366 0-.624.269-.678.68h1.29c.013-.418-.226-.68-.612-.68m1.248 1.138h-1.94c-.017.706.294 1.023.9 1.023.312 0 .636-.073.888-.195l.06.52a2.77 2.77 0 01-1.052.197c-.948 0-1.468-.49-1.468-1.563 0-.918.5-1.605 1.389-1.605.868 0 1.241.594 1.241 1.317 0 .087-.005.191-.018.306M28.932 97.442c-.649 0-.845-.251-.845-.93v-1.66h-.581v-.508h.581v-.969l.649-.177v1.146h.802v.507h-.796v1.457c0 .455.092.576.398.576.135 0 .282-.018.398-.048v.539a3.178 3.178 0 01-.606.067M33.471 94.87a2.216 2.216 0 00-.483-.055c-.52 0-.874.318-.874 1.14 0 .61.189.954.605.954.484 0 .752-.576.752-1.097v-.942zm.03 2.517c0-.16.013-.397.043-.57h-.011c-.166.374-.52.632-.992.632-.747 0-1.12-.552-1.12-1.434 0-1.047.607-1.721 1.592-1.721.145 0 .294.013.458.025v-1.402h.65v4.47h-.62zM36.194 94.766c-.367 0-.624.269-.679.68h1.291c.012-.418-.226-.68-.612-.68m1.249 1.138h-1.94c-.02.706.293 1.023.899 1.023.313 0 .636-.073.887-.195l.062.52c-.305.13-.68.197-1.053.197-.948 0-1.468-.49-1.468-1.563 0-.918.501-1.605 1.388-1.605.87 0 1.242.594 1.242 1.317 0 .087-.006.191-.017.306M39.535 97.387h.655v-4.471h-.655zM42.723 96.009c-.955 0-1.162.288-1.162.55 0 .228.158.375.416.375.446 0 .746-.43.746-.864v-.061zm.043 1.377c0-.196.005-.397.03-.563l-.007-.006c-.146.361-.525.631-1.008.631-.52 0-.85-.294-.85-.779 0-.697.696-1.102 1.792-1.102v-.195c0-.38-.16-.576-.637-.576a1.86 1.86 0 00-.905.245l-.062-.557c.3-.116.68-.202 1.072-.202.93 0 1.185.404 1.185 1.028v1.244c0 .263.008.576.02.832h-.63zM49.667 97.387l-.323-2.198c-.068-.442-.1-.742-.13-1.012h-.012c-.049.233-.11.503-.214.81l-.776 2.4h-.692l-.741-2.23a6.601 6.601 0 01-.263-.98h-.011c-.025.355-.068.68-.111 1.072l-.264 2.138h-.679l.62-4.134h.794l.795 2.387c.099.302.178.577.227.846h.012c.061-.305.129-.514.227-.82l.813-2.413h.802l.63 4.134h-.704zM52.304 94.833c-.396 0-.782.307-.782 1.005 0 .685.268 1.046.777 1.046.421 0 .776-.33.776-1.034 0-.65-.25-1.017-.77-1.017m-.067 2.616c-.845 0-1.396-.473-1.396-1.544 0-.918.594-1.623 1.517-1.623.815 0 1.39.453 1.39 1.525 0 .937-.612 1.642-1.511 1.642M55.578 94.766c-.366 0-.623.269-.678.68h1.29c.013-.418-.227-.68-.612-.68m1.25 1.138h-1.941c-.018.706.293 1.023.899 1.023.312 0 .637-.073.888-.195l.06.52a2.77 2.77 0 01-1.052.197c-.948 0-1.47-.49-1.47-1.563 0-.918.504-1.605 1.39-1.605.87 0 1.242.594 1.242 1.317 0 .087-.005.191-.017.306M57.586 97.387h.654v-4.471h-.654zM59.194 97.387h.654v-4.471h-.654zM61.862 94.766c-.367 0-.624.269-.68.68h1.292c.013-.418-.227-.68-.612-.68m1.248 1.138h-1.939c-.02.706.294 1.023.899 1.023.313 0 .637-.073.888-.195l.061.52a2.77 2.77 0 01-1.052.197c-.95 0-1.469-.49-1.469-1.563 0-.918.502-1.605 1.389-1.605.869 0 1.242.594 1.242 1.317 0 .087-.007.191-.019.306M66.145 93.902l-.245-.374.96-.673.294.447-1.009.6zm.179.864c-.369 0-.626.269-.68.68h1.29c.012-.418-.226-.68-.61-.68zm1.247 1.138h-1.94c-.019.706.293 1.024.9 1.024.311 0 .636-.074.887-.197l.061.52c-.305.13-.679.197-1.052.197-.95 0-1.468-.49-1.468-1.562 0-.918.5-1.604 1.387-1.604.87 0 1.243.594 1.243 1.317 0 .086-.006.19-.018.305zM69.737 94.82c-.49 0-.754.576-.754 1.097v.937c.142.043.295.061.479.061.52 0 .875-.32.875-1.14 0-.611-.19-.955-.6-.955m-.294 2.61c-.172 0-.3-.006-.46-.037v1.488h-.653v-4.539h.618c0 .16-.007.405-.037.57h.012c.171-.386.52-.63.986-.63.721 0 1.119.515 1.119 1.432 0 1.073-.569 1.716-1.585 1.716M71.713 97.386h.655v-3.043h-.655v3.043zm.331-3.496a.418.418 0 01-.422-.411c0-.226.19-.41.422-.41a.41.41 0 01.415.41c0 .227-.189.41-.415.41zM75.225 97.387v-1.96c0-.38-.103-.6-.452-.6-.46 0-.796.483-.796 1.09v1.47h-.655v-3.044h.625c0 .159-.012.423-.043.595l.005.005c.179-.393.545-.662 1.06-.662.69 0 .904.436.904.975v2.13h-.648zM76.83 97.386h.653v-3.043h-.654v3.043zm.33-3.496a.417.417 0 01-.423-.411c0-.226.189-.41.422-.41.226 0 .416.177.416.41 0 .227-.19.41-.416.41zM79.558 94.766c-.368 0-.625.269-.68.68h1.291c.013-.418-.226-.68-.611-.68zm.245-.865l-1.01-.592.3-.461.96.68-.25.373zm1.003 2.003h-1.94c-.018.706.293 1.023.9 1.023.312 0 .636-.073.886-.195l.062.52a2.77 2.77 0 01-1.053.197c-.948 0-1.469-.49-1.469-1.563 0-.918.504-1.605 1.39-1.605.87 0 1.242.594 1.242 1.317 0 .087-.006.191-.018.306zM83.119 94.925c-.606-.11-.9.312-.9 1.225v1.237h-.655v-3.045h.625c0 .172-.018.442-.061.675h.011c.135-.411.441-.79 1.01-.735l-.03.643zM84.734 94.766c-.367 0-.624.269-.68.68h1.292c.012-.418-.226-.68-.612-.68m1.247 1.138h-1.938c-.02.706.292 1.023.9 1.023.31 0 .635-.073.886-.195l.062.52a2.77 2.77 0 01-1.054.197c-.948 0-1.468-.49-1.468-1.563 0-.918.502-1.605 1.389-1.605.87 0 1.242.594 1.242 1.317 0 .087-.005.191-.019.306M24.597 79.538h5.41V56.111h-5.41zM44.187 79.852c-8.634 0-10.957-5.866-10.957-11.177 0-7.601 4.126-12.738 11.859-12.738 1.628 0 3.328.208 4.784.59l-.624 4.895a15.627 15.627 0 00-4.265-.626c-3.78 0-5.825 2.742-5.825 6.977 0 4.616 1.873 7.15 6.103 7.15 1.212 0 2.98-.314 4.091-.833l.624 4.824c-1.699.59-3.779.938-5.79.938M75.358 79.54l-1.491-9.65a80.293 80.293 0 01-.693-5.45h-.07a63.44 63.44 0 01-1.352 5.52l-2.878 9.58h-5.201l-2.774-8.747c-.624-2.014-1.213-4.27-1.526-6.353h-.035c-.207 2.187-.45 3.993-.692 5.936l-1.18 9.163h-5.444l3.745-23.427h6.207l3.26 10.272c.519 1.632.9 3.264 1.248 5.103h.07c.346-1.875.762-3.332 1.317-5.136l3.328-10.24H77.3l3.744 23.428h-5.687zM51.616 28.18c-.235-.644-5.31-13.681-6.532-16.846C41.893 3.061 32.473 0 27.328 0c-.33 0-.805.042-.805.25 0 .255.695.335 1.384.474 6.337 1.282 11.836 4.598 14.4 10.472.99 2.273 6.476 16.383 6.476 16.383l-3.23.116c-.662.014-1.192.594-1.192 1.257v8.665c0 .672-.224.966-1.002.966h-8.89a1.209 1.209 0 00-1.215 1.216v10.73c.001.583.032.875 1.22.875 1.185 0 1.217-.291 1.218-.875v-9.506h8.675a2.424 2.424 0 002.431-2.447V30.1l3.47-.107c1.053-.042 1.665-.945 1.348-1.813"/>
    </g>
</svg>
