<svg width="220" height="56" viewBox="0 0 220 56" xmlns="http://www.w3.org/2000/svg">
    <g fill="none" fill-rule="evenodd">
        <path d="M30.499 43.451c-.839 0-1.518-.638-1.518-1.426v-9.657c0-.787.68-1.426 1.518-1.426h8.197v-6.594c0-.787.68-1.425 1.518-1.425h1.8l-4.438-11.259c-2.093-5.448-8.72-8.813-13.661-8.813-.84 0-1.519-.638-1.519-1.425 0-.788.68-1.426 1.519-1.426 6.099 0 13.943 3.997 16.512 10.686l5.191 13.167c.172.437.106.927-.178 1.31s-.749.61-1.246.61h-2.462v6.595c0 .787-.68 1.425-1.518 1.425h-8.197v8.232c0 .788-.68 1.426-1.518 1.426" fill="#E84E1B"/>
        <path d="M32.015 16.716c-.615-4.472-3.173-7.784-7.4-9.577-2.864-1.215-5.562-1.32-6.03-1.329-.547-.042-4.448-.293-8.53.824C4.072 8.272.633 12.012.105 17.454c-.075.43-.334 2.33.42 4.687.749 2.338 2.677 5.575 7.61 7.718 3.561 1.547 5.789 4.49 6.62 8.75.652 3.33.172 6.25.168 6.276l-.008.047c-.005.038-.55 3.877-1.844 8.675a1.478 1.478 0 102.855.77c1.31-4.855 1.866-8.666 1.916-9.015.056-.343.54-3.513-.165-7.224-.998-5.248-3.89-9.049-8.363-10.991-7.253-3.151-6.351-8.87-6.294-9.192v-.001l.001-.005c.005-.025.007-.05.01-.074.004-.024.008-.047.01-.07.383-4.19 2.984-6.982 7.73-8.3 3.802-1.056 7.58-.747 7.615-.744.04.004.083.006.124.006.385.003 9.45.159 10.576 8.351.262 1.91-.13 3.456-1.198 4.724-2.827 3.353-9.328 3.616-9.42 3.619a1.478 1.478 0 00.047 2.957h.047c.32-.01 7.89-.295 11.58-4.662 1.621-1.919 2.252-4.287 1.874-7.04" fill="#E84E1B"/>
        <path fill="#002D5C" d="M22.783 55.62h1.86v-8.443h-1.86zM32.692 49.371a1.828 1.828 0 00-.674-.512 2.241 2.241 0 00-.925-.179 2.326 2.326 0 00-1.746.77c-.22.242-.39.53-.513.863a3.105 3.105 0 00-.185 1.086c0 .397.062.76.185 1.09.123.33.292.616.507.86.214.242.467.43.757.566.29.135.602.202.936.202.382 0 .72-.08 1.014-.238.294-.159.536-.381.727-.668l1.55 1.157c-.358.5-.81.87-1.36 1.108a4.196 4.196 0 01-1.692.358 5.21 5.21 0 01-1.825-.31 4.17 4.17 0 01-1.443-.888 4.025 4.025 0 01-.947-1.401 4.765 4.765 0 01-.34-1.836c0-.676.113-1.288.34-1.837a4.025 4.025 0 01.947-1.4 4.178 4.178 0 011.443-.89 5.203 5.203 0 011.825-.309c.238 0 .486.022.745.065.258.044.512.114.763.21a3.4 3.4 0 01.722.38c.23.16.436.355.619.585l-1.43 1.168zM36.173 47.177h2.814l1.944 5.51h.024l1.955-5.51h2.802v8.443h-1.86v-6.475h-.024l-2.217 6.475h-1.42l-2.133-6.475h-.024v6.475h-1.86zM54.98 25.77h4.252V1.321H54.98zM68.594 25.77h-4.248V7.378h4.248v2.884c.301-.444.631-.86.99-1.246a6.388 6.388 0 012.814-1.757c.57-.177 1.21-.265 1.93-.265 2.08 0 3.694.64 4.826 1.915 1.137 1.278 1.7 2.996 1.7 5.156V25.77h-4.246V15.343c0-1.436-.341-2.542-1.021-3.319-.68-.775-1.638-1.164-2.882-1.164-1.22 0-2.211.401-2.97 1.2-.763.8-1.141 1.918-1.141 3.354V25.77zM97.962 22.878c-.35.72-.83 1.32-1.448 1.793-.617.476-1.341.836-2.177 1.081a9.549 9.549 0 01-2.682.365c-1.322 0-2.664-.231-4.024-.695a12.83 12.83 0 01-3.777-2.056l1.881-2.857c.997.743 2.012 1.307 3.047 1.691 1.03.382 2.027.574 2.98.574.903 0 1.608-.18 2.104-.54.5-.36.748-.84.748-1.446v-.07c0-.347-.107-.649-.33-.904-.22-.257-.52-.484-.905-.68a7.943 7.943 0 00-1.321-.523c-.5-.15-1.016-.308-1.55-.471a38.1 38.1 0 01-2.042-.695 7.489 7.489 0 01-1.846-.994 5.073 5.073 0 01-1.342-1.497c-.344-.593-.52-1.329-.52-2.213v-.068c0-.86.17-1.638.506-2.335a5.195 5.195 0 011.395-1.777c.588-.488 1.288-.858 2.09-1.115a8.369 8.369 0 012.556-.382c1.161 0 2.337.185 3.518.557 1.185.372 2.264.882 3.241 1.533l-1.671 2.996a14.117 14.117 0 00-2.683-1.273c-.904-.313-1.74-.469-2.508-.469-.811 0-1.443.175-1.9.522-.451.348-.675.79-.675 1.325v.068c0 .325.112.61.345.855.233.243.54.465.924.661.383.197.826.384 1.326.556.496.175 1.015.343 1.55.506.671.21 1.346.454 2.017.731.675.28 1.283.622 1.832 1.028.544.406.991.901 1.341 1.48.345.58.52 1.29.52 2.126v.07c0 .974-.175 1.823-.52 2.542M102.516 3.098h4.248v4.28h4.947v3.587h-4.947v9.05c0 .815.199 1.402.592 1.765.4.362.953.542 1.672.542.909 0 1.779-.21 2.615-.627v3.448a7.393 7.393 0 01-1.706.697c-.607.16-1.302.243-2.09.243a7.732 7.732 0 01-2.133-.28 4.34 4.34 0 01-1.706-.909c-.481-.417-.85-.969-1.108-1.656-.257-.688-.384-1.543-.384-2.566V3.098zM116.588 4.555h4.564V.883h-4.564v3.672zm.175 21.214h4.247V7.38h-4.247v18.39zM125.893 3.098h4.247v4.28h4.947v3.587h-4.947v9.05c0 .815.199 1.402.593 1.765.398.362.952.542 1.671.542.91 0 1.779-.21 2.615-.627v3.448a7.398 7.398 0 01-1.706.697c-.607.16-1.302.243-2.09.243a7.732 7.732 0 01-2.133-.28 4.341 4.341 0 01-1.706-.909c-.48-.417-.85-.969-1.107-1.656-.258-.688-.384-1.543-.384-2.566V3.098zM151.357 7.378h4.247V25.77h-4.247v-2.886a9.01 9.01 0 01-2.26 2.303c-.903.644-2.06.967-3.47.967-2.084 0-3.698-.639-4.83-1.917-1.137-1.275-1.701-2.996-1.701-5.156V7.378h4.247v10.424c0 1.439.34 2.544 1.02 3.32.681.777 1.639 1.163 2.883 1.163 1.22 0 2.211-.398 2.969-1.198.763-.8 1.142-1.917 1.142-3.353V7.378zM160.323 3.098h4.248v4.28h4.947v3.587h-4.947v9.05c0 .815.199 1.402.592 1.765.4.362.953.542 1.672.542.91 0 1.779-.21 2.615-.627v3.448a7.393 7.393 0 01-1.706.697c-.607.16-1.302.243-2.09.243a7.73 7.73 0 01-2.133-.28 4.34 4.34 0 01-1.705-.909c-.482-.417-.851-.969-1.109-1.656-.257-.688-.384-1.543-.384-2.566V3.098zM64.364 45.286V43.42c-.408.579-.957 1.075-1.595 1.484-.642.41-1.431.616-2.371.616a5.44 5.44 0 01-2.008-.382 4.988 4.988 0 01-1.717-1.134 5.856 5.856 0 01-1.215-1.835c-.308-.721-.462-1.548-.462-2.481 0-.932.15-1.76.453-2.48.302-.72.7-1.333 1.202-1.834a4.95 4.95 0 011.73-1.135 5.512 5.512 0 012.017-.381c.955 0 1.75.198 2.38.593.632.396 1.178.856 1.586 1.378v-5.112h2.589v14.569h-2.589zm-.23-7.082a3.6 3.6 0 00-.736-1.134 3.199 3.199 0 00-1.08-.732 3.326 3.326 0 00-1.276-.254 3.41 3.41 0 00-1.289.244c-.404.163-.762.399-1.07.71-.308.312-.549.689-.728 1.134-.175.445-.262.95-.262 1.516 0 .551.087 1.05.262 1.495.18.445.42.824.728 1.135a3.283 3.283 0 002.359.975 3.301 3.301 0 002.356-.986 3.59 3.59 0 00.737-1.134c.185-.438.274-.934.274-1.485 0-.55-.09-1.045-.274-1.484zM77.492 34.091h2.585v11.195h-2.585v-1.757a5.473 5.473 0 01-1.376 1.402c-.55.392-1.254.589-2.112.589-1.269 0-2.25-.39-2.94-1.167-.692-.777-1.035-1.824-1.035-3.138V34.09h2.585v6.345c0 .876.207 1.549.621 2.02.414.474.997.71 1.754.71.743 0 1.346-.244 1.808-.73.464-.487.695-1.167.695-2.041V34.09zM113.174 51.285c.953.802 2.114 1.203 3.484 1.203 1.045 0 1.95-.187 2.717-.559.768-.369 1.521-.916 2.265-1.635l2.473 2.194a10.198 10.198 0 01-3.154 2.508c-1.22.627-2.677.94-4.373.94a9.818 9.818 0 01-3.708-.698 8.93 8.93 0 01-2.994-1.95c-.85-.836-1.516-1.84-2.007-3.013-.486-1.172-.728-2.479-.728-3.918 0-1.324.218-2.565.66-3.726a9.383 9.383 0 011.867-3.05 8.966 8.966 0 012.838-2.073c1.088-.51 2.298-.765 3.62-.765 1.463 0 2.745.267 3.849.802a7.97 7.97 0 012.755 2.157c.73.907 1.283 1.964 1.652 3.171.37 1.208.56 2.474.56 3.798 0 .185-.006.372-.02.557-.01.187-.03.383-.053.592h-13.515c.257 1.51.86 2.664 1.812 3.465zm7.596-6.252a7.282 7.282 0 00-.457-1.897 4.81 4.81 0 00-.938-1.534 4.445 4.445 0 00-1.41-1.027c-.548-.255-1.17-.384-1.865-.384-1.303 0-2.377.447-3.222 1.341-.846.894-1.366 2.06-1.55 3.501h9.442zM104.03 48.829c-1.046.977-2.1 1.75-3.17 2.318-1.069.569-2.347.852-3.834.852-1.161 0-2.235-.225-3.222-.677a7.87 7.87 0 01-2.556-1.864 8.471 8.471 0 01-1.676-2.77c-.394-1.057-.588-2.19-.588-3.397 0-1.207.194-2.332.588-3.38a8.3 8.3 0 011.676-2.733 8.009 8.009 0 012.556-1.847c.987-.452 2.06-.678 3.222-.678 1.395 0 2.64.277 3.728.836a13.575 13.575 0 013.1 2.194l2.755-3.17a17.221 17.221 0 00-1.846-1.531 11.944 11.944 0 00-4.65-1.988c-.92-.185-1.935-.277-3.048-.277-1.861 0-3.557.33-5.088.991-1.53.664-2.857 1.567-3.97 2.72a12.276 12.276 0 00-2.595 4.02c-.618 1.534-.923 3.171-.923 4.914 0 1.764.31 3.414.937 4.944.628 1.534 1.492 2.863 2.595 3.99 1.103 1.127 2.41 2.014 3.922 2.666 1.507.649 3.159.974 4.947.974 1.138 0 2.177-.1 3.115-.296a11.17 11.17 0 002.595-.87 12.954 12.954 0 002.212-1.358c.216-.165.423-.35.634-.53a13.296 13.296 0 01-.659-1.337c-.352-.85-.599-1.759-.758-2.716M132.92 55.657h-4.247v-18.53h4.247v4.145c.584-1.395 1.404-2.51 2.474-3.346 1.069-.836 2.415-1.217 4.043-1.15v4.46h-.243c-.933 0-1.779.153-2.546.454a5.294 5.294 0 00-1.983 1.358c-.559.603-.991 1.364-1.293 2.282-.301.916-.452 1.98-.452 3.185v7.142zM156.469 37.127h4.422l-7.523 18.53h-3.796l-7.56-18.53h4.528l4.948 13.514zM167.754 51.285c.953.802 2.114 1.203 3.484 1.203 1.045 0 1.95-.187 2.717-.559.768-.369 1.521-.916 2.265-1.635l2.473 2.194a10.204 10.204 0 01-3.154 2.508c-1.22.627-2.677.94-4.374.94a9.815 9.815 0 01-3.707-.698 8.93 8.93 0 01-2.994-1.95c-.85-.836-1.516-1.84-2.007-3.013-.486-1.172-.729-2.479-.729-3.918 0-1.324.219-2.565.661-3.726a9.388 9.388 0 011.866-3.05 8.972 8.972 0 012.838-2.073c1.089-.51 2.299-.765 3.62-.765 1.464 0 2.746.267 3.85.802a7.973 7.973 0 012.755 2.157c.729.907 1.283 1.964 1.652 3.171.37 1.208.56 2.474.56 3.798 0 .185-.006.372-.02.557-.01.187-.03.383-.054.592h-13.515c.258 1.51.86 2.664 1.813 3.465zm7.596-6.252a7.282 7.282 0 00-.457-1.897 4.804 4.804 0 00-.938-1.534 4.445 4.445 0 00-1.41-1.027c-.548-.255-1.17-.384-1.865-.384-1.303 0-2.377.447-3.222 1.341-.846.894-1.366 2.06-1.55 3.501h9.442zM195.026 55.657v-2.403c-.626.743-1.428 1.37-2.405 1.88-.972.51-2.158.768-3.552.768a8.43 8.43 0 01-2.508-.367 6.176 6.176 0 01-2.07-1.079 5.36 5.36 0 01-1.429-1.776c-.36-.71-.54-1.528-.54-2.456v-.071c0-.999.185-1.869.555-2.612a5.118 5.118 0 011.55-1.847c.665-.486 1.453-.853 2.371-1.095.919-.246 1.91-.367 2.98-.367 1.112 0 2.06.07 2.837.209a16.78 16.78 0 012.245.558v-.454c0-1.276-.388-2.252-1.166-2.925-.778-.673-1.9-1.011-3.363-1.011-1.044 0-1.973.104-2.784.313-.812.21-1.638.489-2.474.836l-1.151-3.378a19.643 19.643 0 013.139-1.115c1.064-.28 2.357-.418 3.863-.418 2.74 0 4.772.678 6.099 2.04 1.322 1.357 1.983 3.267 1.983 5.729v11.04h-4.18zm.108-7.941a10.789 10.789 0 00-1.9-.522 12.24 12.24 0 00-2.319-.21c-1.322 0-2.357.255-3.1.766-.744.51-1.113 1.241-1.113 2.194v.07c0 .883.34 1.555 1.025 2.02.686.466 1.526.697 2.528.697.694 0 1.34-.092 1.934-.28a4.95 4.95 0 001.55-.782 3.552 3.552 0 001.025-1.22c.243-.475.37-1.003.37-1.584v-1.15zM215.523 37.127h4.248v18.53h-4.248V52.63a9.001 9.001 0 01-2.26 2.304c-.903.644-2.06.967-3.47.967-2.084 0-3.698-.639-4.83-1.917-1.137-1.276-1.701-2.996-1.701-5.156V37.127h4.247V47.55c0 1.438.34 2.544 1.021 3.32.68.776 1.638 1.163 2.882 1.163 1.22 0 2.211-.399 2.97-1.198.762-.8 1.141-1.917 1.141-3.353V37.127z"/>
    </g>
</svg>
