<svg width="84" height="84" viewBox="0 0 84 84" xmlns="http://www.w3.org/2000/svg">
    <g fill="none" fill-rule="evenodd">
        <circle fill="#FFF" fill-rule="nonzero" cx="42" cy="42" r="42"/>
        <path d="M77.952 41.998c0 19.842-16.085 35.928-35.928 35.928-19.843 0-35.927-16.086-35.927-35.928 0-19.843 16.084-35.929 35.927-35.929s35.928 16.086 35.928 35.929" fill="#27347D"/>
        <path d="M2 2h78.058v80H2z"/>
        <path d="M45.44 81.85C23.43 83.749 4.05 67.447 2.15 45.438.252 23.428 16.553 4.047 38.562 2.148a39.997 39.997 0 0122.993 4.958c3.182 1.778 2.921 1.886 2.868 2.152a.307.307 0 01-.274.24c-.214 0-.294-.186-3.008-1.624a38.724 38.724 0 00-21.483-4.371c-3.325.288-6.6.998-9.746 2.113A38.692 38.692 0 007.854 25.36 37.923 37.923 0 006.23 54.699c5.876 16.504 22.167 26.948 39.617 25.4a39.09 39.09 0 0032.46-23.342c1.216-2.807 1.17-2.854 1.397-2.874a.31.31 0 01.273.12c.127.167.261.188-.915 3.069a40.06 40.06 0 01-33.622 24.77" fill="#27347D"/>
        <path d="M29.685 30.868c1.007-.223 1.61-.668 1.812-1.337.2-.668.117-1.895-.249-3.683-.418-1.889-.864-3.153-1.336-3.79a1.888 1.888 0 00-2.072-.669l-.208.047 2.053 9.432zm-4.05-10.447l2.004-.449a5.23 5.23 0 011.611-.139c.435.052.85.215 1.204.474a4.55 4.55 0 011.463 1.765c.474 1.07.825 2.192 1.043 3.342.272 1.104.41 2.238.408 3.376a3.722 3.722 0 01-.635 2.1c-.477.663-1.49 1.168-3.04 1.516l-1.338.294-2.72-12.279zM39.592 24.258a20.09 20.09 0 00-1.224-4.158 1.216 1.216 0 00-1.397-.788 1.196 1.196 0 00-.962 1.222 17.14 17.14 0 00.588 3.945 15.905 15.905 0 001.13 3.663c.222.543.802.849 1.377.728a1.19 1.19 0 00.942-1.176 12.449 12.449 0 00-.434-3.436h-.02zm1.684-.562c.48 2.166.582 3.757.3 4.773a2.577 2.577 0 01-2.118 1.905 2.675 2.675 0 01-2.841-.91c-.695-.851-1.315-2.5-1.858-4.945-.481-2.18-.586-3.775-.314-4.786a2.605 2.605 0 012.152-1.912 2.676 2.676 0 012.52.548 5.157 5.157 0 011.163 1.852 21.427 21.427 0 011.002 3.475h-.006zM42.05 16.784l1.546-.34 2.726 4.525a45.574 45.574 0 012.24 4.144 45.597 45.597 0 01-.863-2.507 28.983 28.983 0 01-.574-2.145l-1.016-4.573 1.65-.367 2.722 12.26-1.545.34-3.074-5.107a30.99 30.99 0 01-.83-1.477c-.274-.508-1.008-2.079-1.07-2.213.048.134.563 1.818.563 1.818s.48 1.678.514 1.805l1.337 5.735-1.637.362-2.688-12.26M38.428 35.715a4.012 4.012 0 00-.494-1.23.601.601 0 00-.668-.221.596.596 0 00-.488.474 4 4 0 00.04 1.337l1.61-.36zm.469 1.65l1.196-.266c.235 1.51-.272 2.4-1.525 2.673a2.26 2.26 0 01-1.002 0 1.65 1.65 0 01-.796-.441 2.971 2.971 0 01-.609-.923 7.53 7.53 0 01-.447-1.43 4.798 4.798 0 01-.04-2.593 1.794 1.794 0 011.41-1.163c1.395-.308 2.34.654 2.834 2.888v.146l-2.934.669c.298 1.337.744 1.947 1.337 1.83.593-.115.77-.585.535-1.41l.04.02zM40.807 32.546l1.283-.287.161.728a1.697 1.697 0 011.244-1.15 1.333 1.333 0 011.336.335c.265.383.436.822.501 1.283l.996 4.532-1.283.288-.942-4.231a1.858 1.858 0 00-.375-.876.668.668 0 00-.668-.141.926.926 0 00-.355.155.567.567 0 00-.193.28 1.164 1.164 0 00-.047.435c.014.21.045.42.094.628l.908 4.09-1.283.288-1.403-6.33M17.072 47.278l.327 1.484a2.633 2.633 0 00-1.13-.08c-.359.07-.689.25-.942.515-.258.297-.429.66-.494 1.05a5.774 5.774 0 00-.068 1.617c.068.746.186 1.488.355 2.22.673 3.024 1.787 4.361 3.342 4.01.337-.09.65-.25.923-.468l.333 1.516a2.736 2.736 0 01-1.262.63c-2.483.547-4.174-1.204-5.074-5.255-.486-2.192-.543-3.89-.174-5.093a3.068 3.068 0 012.427-2.219 2.92 2.92 0 011.444.06M24.705 52.305a20.078 20.078 0 00-1.223-4.157 1.217 1.217 0 00-1.377-.802 1.196 1.196 0 00-.963 1.223c.038 1.335.23 2.66.576 3.95a15.86 15.86 0 001.13 3.663c.222.544.8.85 1.377.728.553-.117.948-.61.942-1.175a12.526 12.526 0 00-.435-3.43h-.027zm1.718-.562c.48 2.166.582 3.757.3 4.773a2.577 2.577 0 01-2.118 1.898 2.669 2.669 0 01-2.84-.91c-.696-.845-1.322-2.492-1.88-4.938-.481-2.184-.585-3.78-.313-4.786a2.598 2.598 0 012.146-1.905 2.674 2.674 0 012.519.548 5.134 5.134 0 011.156 1.852 21.23 21.23 0 011.003 3.475l.027-.007zM27.172 44.832l1.537-.341 2.728 4.526a45.871 45.871 0 012.246 4.137 42.928 42.928 0 01-.863-2.507 29.549 29.549 0 01-.575-2.145l-.996-4.572 1.652-.369 2.693 12.266-1.544.342-3.067-5.108a29.641 29.641 0 01-.83-1.47c-.267-.501-1.002-2.085-1.07-2.212.048.134.563 1.818.563 1.818s.48 1.684.507 1.805l1.337 5.734-1.578.355-2.74-12.259M54.39 38.796l2.733 4.539a45.638 45.638 0 012.247 4.144 45.586 45.586 0 01-.863-2.506 29.05 29.05 0 01-.575-2.147l-1.016-4.571 1.652-.368 2.72 12.259-1.544.342-3.095-5.148a32.298 32.298 0 01-.829-1.471 87.843 87.843 0 01-1.07-2.211c.047.133.562 1.817.562 1.817s.481 1.684.508 1.806l1.337 5.734-1.638.36-2.667-12.238 1.538-.341zM35.386 43.007l4.412-.976.314 1.398-2.767.614.863 3.87 2.492-.548.308 1.398-2.492.548 1.242 5.594-1.65.362zM41.61 41.63l1.65-.367 2.714 12.259-1.65.367zM50.908 48.582l-.789-1.905a53.74 53.74 0 01-1.537-4.124c.089.753.158 1.519.207 2.299.049.78.089 1.611.12 2.494l.047 1.636 1.952-.4zm-3.477-8.242l1.285-.287 5.346 11.677-1.637.361-.99-2.286-2.432.542.059 2.493-1.591.354-.045-12.854h.005zM65.76 36.483l.328 1.483a2.632 2.632 0 00-1.137-.073c-.36.07-.688.25-.942.515a2.144 2.144 0 00-.495 1.05 5.806 5.806 0 00-.067 1.617c.067.747.185 1.488.354 2.22.674 3.025 1.787 4.362 3.343 4.01.337-.094.65-.256.922-.475l.334 1.517c-.358.315-.79.532-1.257.63-2.481.547-4.172-1.204-5.072-5.255-.495-2.183-.555-3.873-.181-5.067a3.055 3.055 0 012.427-2.219 2.886 2.886 0 011.444.061M67.498 35.889l4.392-.97.307 1.398-2.74.608.862 3.877 2.433-.535.308 1.397-2.433.54.929 4.186 2.74-.608.307 1.396-4.384.97zM25.715 63.83l-.582.714c.008-.195-.02-.39-.08-.575a.822.822 0 00-.268-.36.854.854 0 00-.668-.195.954.954 0 00-.634.375.981.981 0 00-.242.668c.019.243.14.468.335.615a.89.89 0 00.414.194c.2.021.4.007.595-.04l-.575.715a1.823 1.823 0 01-.795-.36 1.614 1.614 0 01-.655-1.064c-.057-.42.067-.845.34-1.169a1.531 1.531 0 011.084-.589 1.61 1.61 0 011.196.375c.226.176.405.406.52.668M26.203 65.808a1.019 1.019 0 00-.168.735.936.936 0 001.11.668c.5-.167.818-.66.762-1.183a.85.85 0 00-.414-.568.83.83 0 00-.67-.107.964.964 0 00-.62.455m-.596-.382c.21-.356.559-.61.963-.701a1.646 1.646 0 011.946 1.189 1.612 1.612 0 01-1.184 1.932 1.592 1.592 0 01-1.216-.214 1.533 1.533 0 01-.723-.99c-.1-.416-.026-.855.208-1.216M29.698 66.168l.669.261-.107.254c.135-.066.279-.111.427-.134a.823.823 0 01.382.074.92.92 0 01.574.715 1.04 1.04 0 01.99-.073c.628.257.784.766.467 1.523l-.708 1.718-.669-.267.636-1.544c.094-.189.14-.398.133-.608a.379.379 0 00-.261-.301.454.454 0 00-.468.04 1.402 1.402 0 00-.387.595l-.588 1.437-.668-.267.635-1.538c.205-.494.165-.8-.12-.915a.459.459 0 00-.482.04c-.18.157-.313.36-.388.588l-.588 1.437-.668-.267 1.142-2.781M34.799 66.73a.448.448 0 01.819-.104l.003.003c.064.102.08.227.047.341a.434.434 0 01-.214.275.446.446 0 01-.615-.167.438.438 0 01-.04-.349m.46 1.431l-.781 2.901-.668-.18.782-2.901.668.18M37.151 69.236l-.435 2.32-.68-.134.427-2.313-.288-.054.121-.64.287.052.208-1.083.681.127-.2 1.09.527.094-.12.642zM40.607 70.072a.667.667 0 00-.669-.608.646.646 0 00-.24 0 .648.648 0 00-.38.254.749.749 0 00-.114.226l1.403.128zm.668.628l-2.146-.16a.924.924 0 00.195.608.735.735 0 00.527.254.704.704 0 00.435-.094c.162-.118.301-.262.415-.427l.561.367a2.448 2.448 0 01-.314.375c-.102.097-.216.18-.34.247a1.391 1.391 0 01-.389.127c-.144.017-.29.017-.434 0a1.42 1.42 0 01-1.043-.508 1.637 1.637 0 01-.32-1.184c.011-.42.183-.823.481-1.123a1.505 1.505 0 012.1.148c.242.352.34.786.272 1.21v.16zM44.557 69.042l.047.923a1.661 1.661 0 00-.448-.374.81.81 0 00-.44-.087.845.845 0 00-.67.308.959.959 0 00-.226.667c.005.25.105.49.28.669a.85.85 0 00.668.241.887.887 0 00.435-.127c.162-.118.301-.263.415-.428l.046.916c-.253.153-.54.243-.836.261a1.628 1.628 0 01-1.189-.395 1.498 1.498 0 01-.52-1.103 1.527 1.527 0 01.42-1.157 1.616 1.616 0 011.142-.521c.294-.014.585.046.85.174M45.186 66.623l.668-.127.441 2.419c.178-.246.444-.416.743-.475.3-.068.614-.002.862.181.24.224.39.528.421.856l.334 1.811-.696.12-.32-1.751a.848.848 0 00-.22-.494.494.494 0 00-.435-.087.564.564 0 00-.462.314c-.069.26-.069.535 0 .796l.261 1.43-.668.127-.943-5.127M50.053 69.35c.067.245.222.456.434.596.2.126.445.153.669.073a.794.794 0 00.507-.448c.179-.492 0-1.043-.434-1.337a.782.782 0 00-.669-.067.766.766 0 00-.488.442.999.999 0 00-.007.74h-.012zm1.116-1.951l.668-.214.922 2.888-.669.214-.1-.301a1.335 1.335 0 01-1.872.554 1.677 1.677 0 01-.742-.97 1.639 1.639 0 01.034-1.196c.15-.357.452-.63.823-.742a1.276 1.276 0 011.029.12l-.106-.334.013-.02zM52.94 66.73l.628-.294.113.24c.04-.14.104-.275.188-.394a.763.763 0 01.294-.22c.187-.081.392-.108.594-.08v.707a.676.676 0 00-.407.034c-.344.16-.392.499-.147 1.017l.67 1.41-.63.293-1.304-2.713M56.382 65.653l1.197 2.04-.601.347-1.191-2.033-.254.148-.334-.556.26-.153-.56-.949.6-.348.556.95.468-.275.328.556zM59.43 64.163a.67.67 0 00-.895 0 .643.643 0 00-.167.174.64.64 0 00-.1.207.657.657 0 000 .234.84.84 0 00.059.247l1.104-.862zm.91-.007l-1.732 1.283a.911.911 0 00.542.334.731.731 0 00.568-.153.716.716 0 00.274-.36 1.83 1.83 0 00.034-.596l.667-.087c.018.162.018.326 0 .488a1.51 1.51 0 01-.1.414 1.333 1.333 0 01-.208.348c-.093.111-.2.21-.32.294a1.421 1.421 0 01-1.122.295 1.626 1.626 0 01-1.017-.669 1.662 1.662 0 01-.367-1.163 1.505 1.505 0 011.684-1.264c.413.101.77.354 1.002.71l.095.133v-.007zM62.077 63.929a.429.429 0 11.749-.273.41.41 0 01-.134.294.423.423 0 01-.608-.021M63.14 61.242c.18.173.419.272.669.28a.935.935 0 00.862-.982 1.129 1.129 0 00-1.057-.916.93.93 0 00-.848.982.971.971 0 00.38.636h-.007zm-.476.527a1.491 1.491 0 01-.534-1.076 1.643 1.643 0 011.497-1.724 1.61 1.61 0 011.711 1.484c.029.43-.12.851-.406 1.17a1.535 1.535 0 01-1.09.555 1.554 1.554 0 01-1.178-.409zM64.176 57.599l.388-.574.22.153a1.349 1.349 0 01-.04-.434.778.778 0 01.134-.341 1.12 1.12 0 01.46-.367l.349.62a.67.67 0 00-.334.242c-.21.316-.078.633.394.949l1.29.868-.387.575-2.494-1.684M67.919 54.196a1.008 1.008 0 00-.73-.113.774.774 0 00-.513.414.75.75 0 000 .67c.234.43.708.676 1.197.62a.746.746 0 00.54-.42.76.76 0 000-.669 1.03 1.03 0 00-.48-.475l-.014-.027zm1.585.087l.327.187c.08.051.159.108.234.167.173.14.307.322.388.53.152.396.114.841-.1 1.21a1.492 1.492 0 01-.743.727 1.34 1.34 0 01-1.036 0l.322-.622a.789.789 0 00.367.04.75.75 0 00.542-.428c.23-.445.07-.813-.482-1.102l-.374-.194a1.337 1.337 0 01-.936 1.711 1.637 1.637 0 01-1.183-.167 1.736 1.736 0 01-.822-.835 1.274 1.274 0 01.047-1.15c.154-.334.452-.58.808-.669l-.3-.153.32-.615 2.607 1.337.014.026z" fill="#FFF"/>
    </g>
</svg>
