<svg width="200" height="51" viewBox="0 0 200 51" xmlns="http://www.w3.org/2000/svg">
    <g fill="none" fill-rule="evenodd">
        <path d="M27.726 39.501c-.762 0-1.38-.58-1.38-1.296v-8.78c0-.715.618-1.296 1.38-1.296h7.452v-5.994c0-.716.618-1.296 1.38-1.296h1.636L34.16 10.604c-1.903-4.953-7.927-8.012-12.42-8.012-.762 0-1.38-.58-1.38-1.296C20.36.58 20.978 0 21.74 0c5.545 0 12.676 3.633 15.012 9.714l4.719 11.97a1.23 1.23 0 01-.162 1.191c-.258.348-.68.555-1.132.555h-2.239v5.995c0 .716-.618 1.296-1.38 1.296h-7.452v7.484c0 .716-.618 1.296-1.38 1.296" fill="#E84E1B"/>
        <path d="M29.104 15.196c-.558-4.065-2.884-7.076-6.727-8.706-2.603-1.105-5.056-1.2-5.481-1.208-.498-.039-4.045-.266-7.755.749C3.701 7.52.575 10.92.094 15.867c-.068.392-.303 2.118.383 4.261.68 2.126 2.433 5.068 6.918 7.017 3.237 1.406 5.262 4.082 6.018 7.953.592 3.03.156 5.682.152 5.707l-.007.042c-.004.035-.5 3.524-1.677 7.887a1.344 1.344 0 102.596.7c1.192-4.414 1.697-7.879 1.742-8.196.051-.311.492-3.194-.15-6.567-.907-4.77-3.536-8.226-7.602-9.992-6.595-2.865-5.775-8.063-5.722-8.356v-.001-.005c.005-.022.007-.045.01-.067.003-.022.007-.042.009-.064.348-3.809 2.713-6.347 7.026-7.545 3.457-.96 6.891-.68 6.923-.676.037.003.077.005.113.005.35.002 8.591.145 9.615 7.592.238 1.737-.118 3.142-1.09 4.294-2.57 3.049-8.48 3.287-8.562 3.29a1.344 1.344 0 00.042 2.689l.043-.001c.291-.01 7.173-.268 10.527-4.238 1.474-1.744 2.047-3.897 1.703-6.4" fill="#E84E1B"/>
        <path fill="#FFF" d="M20.712 50.564h1.69v-7.676h-1.69zM29.72 44.883a1.662 1.662 0 00-.613-.466 2.038 2.038 0 00-.84-.162 2.115 2.115 0 00-1.588.699c-.2.22-.354.482-.466.785a2.823 2.823 0 00-.168.987c0 .362.056.692.168.992.112.3.266.56.46.78.195.221.425.392.688.515.264.123.548.185.852.185.347 0 .654-.073.921-.217.268-.144.487-.347.661-.607l1.41 1.051a2.928 2.928 0 01-1.236 1.008 3.814 3.814 0 01-1.54.326c-.6 0-1.152-.095-1.658-.282a3.792 3.792 0 01-1.312-.808 3.659 3.659 0 01-.861-1.274 4.332 4.332 0 01-.31-1.669c0-.614.104-1.17.31-1.67.205-.498.493-.922.861-1.273.369-.35.806-.62 1.312-.808a4.73 4.73 0 011.659-.281c.217 0 .442.02.677.059.234.04.466.103.694.19.227.087.446.202.656.347.21.144.397.322.563.53l-1.3 1.063zM32.885 42.889h2.558l1.767 5.008h.022l1.777-5.008h2.548v7.675h-1.691v-5.887h-.022l-2.016 5.887h-1.29l-1.94-5.887h-.022v5.887h-1.691zM49.982 23.427h3.865V1.2h-3.865zM62.358 23.427h-3.861V6.707h3.86V9.33c.275-.404.575-.781.902-1.133a5.807 5.807 0 012.558-1.597c.517-.161 1.1-.24 1.754-.24 1.89 0 3.358.58 4.387 1.74 1.034 1.162 1.546 2.724 1.546 4.688v10.64h-3.86v-9.479c0-1.305-.31-2.31-.929-3.017-.618-.705-1.489-1.058-2.62-1.058-1.108 0-2.01.364-2.699 1.091-.694.727-1.038 1.743-1.038 3.049v9.414zM89.057 20.798a4.503 4.503 0 01-1.317 1.63c-.561.433-1.22.76-1.979.983a8.68 8.68 0 01-2.439.332c-1.201 0-2.42-.21-3.658-.632a11.663 11.663 0 01-3.433-1.87l1.71-2.597c.906.676 1.83 1.189 2.77 1.538.937.347 1.843.521 2.708.521.822 0 1.463-.163 1.913-.49.456-.327.68-.764.68-1.315v-.064c0-.315-.096-.59-.3-.821-.199-.234-.473-.44-.822-.619a7.221 7.221 0 00-1.201-.475c-.455-.137-.923-.28-1.41-.428-.614-.19-1.232-.4-1.855-.632a6.808 6.808 0 01-1.679-.903 4.611 4.611 0 01-1.22-1.361c-.312-.54-.472-1.208-.472-2.013v-.061c0-.782.155-1.49.46-2.123a4.723 4.723 0 011.268-1.615c.534-.444 1.17-.78 1.9-1.014a7.608 7.608 0 012.323-.347c1.056 0 2.125.168 3.198.506 1.078.338 2.06.802 2.947 1.394l-1.52 2.724a12.833 12.833 0 00-2.438-1.158c-.822-.284-1.582-.426-2.28-.426-.737 0-1.312.159-1.727.475-.41.316-.614.718-.614 1.204v.062c0 .296.102.554.314.777.212.22.49.422.84.6.348.18.75.35 1.205.507.45.159.923.311 1.41.46.61.19 1.223.412 1.833.664a7.804 7.804 0 011.665.934c.495.37.902.82 1.22 1.346.313.528.472 1.173.472 1.933v.064c0 .885-.159 1.656-.472 2.31M93.197 2.817h3.86v3.89h4.498v3.26h-4.497v8.23c0 .74.18 1.273.539 1.603.362.329.866.492 1.52.492.826 0 1.616-.19 2.376-.57v3.135a6.721 6.721 0 01-1.55.634 7.464 7.464 0 01-1.9.22 7.03 7.03 0 01-1.94-.253 3.946 3.946 0 01-1.55-.827c-.438-.379-.773-.88-1.007-1.506-.234-.625-.35-1.403-.35-2.333V2.817zM105.99 4.14h4.148V.802h-4.149V4.14zm.158 19.287h3.861V6.707h-3.86v16.72zM114.448 2.817h3.861v3.89h4.497v3.26h-4.497v8.23c0 .74.181 1.273.539 1.603.362.329.866.492 1.52.492.826 0 1.617-.19 2.376-.57v3.135a6.726 6.726 0 01-1.55.634 7.464 7.464 0 01-1.9.22 7.029 7.029 0 01-1.94-.253 3.947 3.947 0 01-1.55-.827c-.437-.379-.773-.88-1.007-1.506-.234-.625-.35-1.403-.35-2.333V2.817zM137.597 6.707h3.862v16.72h-3.862v-2.625a8.19 8.19 0 01-2.054 2.095c-.821.585-1.873.879-3.154.879-1.895 0-3.362-.581-4.392-1.743-1.033-1.16-1.546-2.724-1.546-4.687V6.707h3.861v9.477c0 1.307.31 2.313.928 3.017.618.707 1.489 1.058 2.62 1.058 1.109 0 2.01-.362 2.699-1.089.694-.727 1.038-1.743 1.038-3.048V6.707zM145.749 2.817h3.86v3.89h4.498v3.26h-4.497v8.23c0 .74.18 1.273.539 1.603.362.329.866.492 1.52.492.826 0 1.616-.19 2.376-.57v3.135a6.721 6.721 0 01-1.55.634 7.464 7.464 0 01-1.9.22 7.027 7.027 0 01-1.94-.253 3.946 3.946 0 01-1.55-.827c-.438-.379-.773-.88-1.007-1.506-.234-.625-.35-1.403-.35-2.333V2.817zM58.513 41.169v-1.697c-.371.527-.87.978-1.45 1.35-.584.373-1.302.56-2.156.56a4.945 4.945 0 01-1.825-.347 4.534 4.534 0 01-1.561-1.032 5.324 5.324 0 01-1.104-1.667c-.28-.656-.42-1.408-.42-2.256 0-.847.136-1.6.411-2.255a5.117 5.117 0 011.093-1.667 4.5 4.5 0 011.573-1.031 5.011 5.011 0 011.833-.347c.869 0 1.592.18 2.164.539.575.36 1.07.778 1.442 1.253v-4.648h2.353V41.17h-2.353zm-.209-6.438a3.272 3.272 0 00-.67-1.031 2.908 2.908 0 00-.98-.665 3.024 3.024 0 00-1.162-.232 3.1 3.1 0 00-1.17.222 2.867 2.867 0 00-.974.646c-.28.283-.499.626-.661 1.03a3.74 3.74 0 00-.239 1.379c0 .501.08.955.239 1.36.162.404.381.748.661 1.03a2.985 2.985 0 002.144.886 3.001 3.001 0 002.142-.895c.28-.29.505-.633.67-1.031.168-.398.25-.849.25-1.35 0-.5-.082-.95-.25-1.349zM70.447 30.992h2.35V41.17h-2.35v-1.597c-.333.493-.75.918-1.25 1.274-.5.357-1.14.535-1.92.535-1.154 0-2.047-.353-2.673-1.06-.63-.706-.942-1.658-.942-2.853v-6.476h2.35v5.768c0 .796.19 1.408.565 1.837.377.43.906.644 1.595.644.675 0 1.223-.22 1.643-.663.422-.442.632-1.06.632-1.855v-5.73zM102.886 46.623c.866.729 1.921 1.094 3.167 1.094.95 0 1.772-.17 2.47-.508.698-.336 1.383-.833 2.059-1.487l2.248 1.995a9.27 9.27 0 01-2.867 2.28c-1.109.569-2.434.854-3.976.854a8.925 8.925 0 01-3.37-.634 8.118 8.118 0 01-2.722-1.774c-.773-.76-1.378-1.672-1.825-2.739-.442-1.065-.662-2.253-.662-3.56 0-1.204.198-2.333.6-3.389a8.53 8.53 0 011.697-2.772 8.15 8.15 0 012.58-1.885c.99-.464 2.09-.695 3.291-.695 1.33 0 2.496.243 3.499.728a7.246 7.246 0 012.505 1.962 8.53 8.53 0 011.502 2.883c.336 1.098.508 2.249.508 3.452 0 .168-.004.338-.018.506-.008.17-.026.35-.048.54h-12.286c.234 1.371.782 2.42 1.648 3.15zm6.905-5.683a6.62 6.62 0 00-.415-1.726 4.372 4.372 0 00-.853-1.394 4.04 4.04 0 00-1.281-.934c-.5-.232-1.065-.349-1.697-.349-1.184 0-2.16.406-2.929 1.22-.768.812-1.241 1.872-1.409 3.183h8.584zM94.572 44.39c-.95.888-1.909 1.59-2.88 2.107-.973.517-2.134.775-3.486.775-1.056 0-2.032-.205-2.93-.616a7.155 7.155 0 01-2.323-1.694 7.701 7.701 0 01-1.524-2.518 8.774 8.774 0 01-.535-3.088c0-1.098.177-2.121.535-3.073a7.546 7.546 0 011.524-2.485 7.28 7.28 0 012.324-1.679 6.95 6.95 0 012.929-.616c1.268 0 2.399.252 3.389.76.993.505 1.934 1.17 2.818 1.995l2.505-2.883c-.53-.506-1.091-.97-1.679-1.392a10.858 10.858 0 00-4.228-1.807 14.107 14.107 0 00-2.77-.251c-1.692 0-3.234.3-4.626.9-1.391.604-2.597 1.425-3.609 2.472a11.16 11.16 0 00-2.359 3.656c-.561 1.394-.84 2.883-.84 4.467 0 1.603.283 3.103.853 4.495a11.175 11.175 0 002.36 3.627 11.048 11.048 0 003.565 2.423c1.37.59 2.871.886 4.497.886 1.034 0 1.98-.09 2.832-.27.857-.179 1.644-.444 2.359-.79.72-.35 1.387-.76 2.01-1.235.197-.15.386-.319.577-.482-.217-.388-.42-.79-.599-1.215a11.23 11.23 0 01-.69-2.47M120.837 50.597h-3.862V33.752h3.862v3.768c.53-1.268 1.276-2.282 2.248-3.042.972-.76 2.196-1.106 3.676-1.045v4.054h-.22c-.85 0-1.618.14-2.316.413-.694.274-1.299.685-1.803 1.235-.507.548-.9 1.24-1.175 2.074-.273.833-.41 1.8-.41 2.896v6.492zM142.244 33.752h4.02l-6.839 16.845h-3.45L129.1 33.752h4.117l4.498 12.286zM152.504 46.623c.866.729 1.921 1.094 3.167 1.094.95 0 1.772-.17 2.47-.508.698-.336 1.383-.833 2.059-1.487l2.248 1.995a9.277 9.277 0 01-2.867 2.28c-1.108.569-2.434.854-3.976.854a8.923 8.923 0 01-3.37-.634 8.118 8.118 0 01-2.722-1.774c-.773-.76-1.378-1.672-1.825-2.739-.441-1.065-.662-2.253-.662-3.56 0-1.204.198-2.333.6-3.389a8.534 8.534 0 011.697-2.772 8.156 8.156 0 012.58-1.885c.99-.464 2.09-.695 3.291-.695 1.33 0 2.496.243 3.5.728a7.248 7.248 0 012.504 1.962 8.538 8.538 0 011.502 2.883c.336 1.098.508 2.249.508 3.452 0 .168-.004.338-.018.506-.008.17-.026.35-.048.54h-12.286c.234 1.371.782 2.42 1.648 3.15zm6.905-5.683a6.62 6.62 0 00-.415-1.726 4.367 4.367 0 00-.853-1.394 4.04 4.04 0 00-1.281-.934c-.5-.232-1.065-.349-1.697-.349-1.184 0-2.16.406-2.929 1.22-.769.812-1.241 1.872-1.41 3.183h8.585zM177.297 50.597v-2.185c-.57.676-1.299 1.246-2.187 1.71-.884.464-1.962.698-3.23.698-.799 0-1.559-.11-2.28-.334a5.614 5.614 0 01-1.881-.98 4.873 4.873 0 01-1.299-1.615c-.327-.645-.49-1.39-.49-2.233v-.064c0-.908.167-1.7.503-2.375a4.653 4.653 0 011.41-1.679c.605-.441 1.32-.775 2.155-.996a10.457 10.457 0 012.709-.333c1.011 0 1.873.064 2.58.19.706.125 1.387.295 2.04.508v-.413c0-1.16-.353-2.048-1.06-2.66-.707-.612-1.727-.919-3.057-.919-.95 0-1.793.095-2.531.285-.738.19-1.489.444-2.249.76l-1.047-3.07c.932-.422 1.882-.76 2.854-1.014.968-.255 2.143-.38 3.512-.38 2.492 0 4.338.616 5.545 1.853 1.201 1.235 1.802 2.97 1.802 5.209v10.037h-3.8zm.097-7.219a9.808 9.808 0 00-1.727-.475c-.668-.128-1.37-.19-2.108-.19-1.201 0-2.142.232-2.818.696-.676.464-1.012 1.129-1.012 1.995v.064c0 .802.31 1.413.932 1.835.623.424 1.387.634 2.298.634.631 0 1.219-.083 1.758-.254a4.5 4.5 0 001.41-.71 3.23 3.23 0 00.931-1.11 3.12 3.12 0 00.336-1.44v-1.045zM195.93 33.752h3.861v16.845h-3.86v-2.75a8.183 8.183 0 01-2.055 2.094c-.822.585-1.873.879-3.155.879-1.895 0-3.362-.58-4.391-1.743-1.034-1.16-1.546-2.723-1.546-4.687V33.752h3.86v9.476c0 1.308.31 2.313.929 3.018.618.706 1.489 1.057 2.62 1.057 1.109 0 2.01-.362 2.699-1.089.694-.727 1.038-1.743 1.038-3.048v-9.414z"/>
    </g>
</svg>
