<svg width="181" height="30" viewBox="0 0 181 30" xmlns="http://www.w3.org/2000/svg">
    <g fill="none" fill-rule="evenodd">
        <path d="M0 1.321h17.622v28.554H0z"/>
        <path d="M2.71 6.899c0-2.806 2.411-4.588 6.102-4.587 3.692.001 6.18 1.784 6.178 4.59 0 2.807-2.463 4.589-6.257 4.588-.354 0-.322.688.23.688 4.867.001 8.659-2.148 8.66-5.275 0-3.126-3.943-5.58-8.81-5.582C3.947 1.32 0 3.771 0 6.898c-.002 6.051 12.092 8.67 5.735 22.479-.156.364.349.72.557.324C13.523 16.158 2.707 12.896 2.71 6.899" fill="#EE7B10"/>
        <path d="M23.072 12.583c-.105-.287-2.374-6.109-2.92-7.522C18.726 1.367 14.516 0 12.216 0c-.147 0-.36.019-.36.111 0 .114.311.15.619.212C15.307.896 17.764 2.376 18.91 5c.444 1.014 2.895 7.315 2.895 7.315l-1.443.051a.56.56 0 00-.533.562v3.869c0 .3-.1.432-.448.432h-3.974a.54.54 0 00-.543.543v4.79c0 .261.014.392.545.392.53 0 .544-.13.545-.391v-4.245h3.878c.619 0 1.088-.5 1.086-1.092V13.44l1.551-.048c.47-.019.745-.421.603-.81" fill="#002D5C"/>
        <path d="M0 29.875h180.69V0H0z"/>
        <path fill="#002D5C" d="M29.396 18.319h3.143v-13.6h-3.143zM40.779 18.5c-5.017 0-6.367-3.406-6.367-6.488 0-4.413 2.398-7.394 6.89-7.394.948 0 1.935.12 2.781.342l-.362 2.84a9.11 9.11 0 00-2.479-.362c-2.195 0-3.384 1.592-3.384 4.05 0 2.68 1.088 4.15 3.546 4.15.705 0 1.732-.181 2.377-.483l.363 2.8c-.987.343-2.196.544-3.365.544M58.892 18.318l-.867-5.6a46.793 46.793 0 01-.402-3.164h-.04a36.787 36.787 0 01-.786 3.203l-1.672 5.561h-3.023l-1.611-5.077c-.363-1.169-.706-2.479-.887-3.687h-.02c-.121 1.27-.262 2.317-.403 3.445l-.685 5.32h-3.163l2.175-13.601h3.607l1.894 5.964c.302.947.524 1.894.725 2.962h.04c.202-1.088.444-1.934.766-2.982l1.934-5.944h3.547l2.175 13.6h-3.304zM73.681 10.038h1.167V2.813H73.68zM79.857 10.038V6.612c0-.663-.182-1.048-.791-1.048-.804 0-1.392.845-1.392 1.905v2.57h-1.145v-5.32h1.09c0 .277-.02.737-.073 1.037l.01.01c.31-.684.953-1.155 1.852-1.155 1.21 0 1.584.76 1.584 1.702v3.725h-1.135zM83.54 10.145a6.11 6.11 0 01-1.124-.107l.032-.974c.332.096.75.171 1.156.171.621 0 1.049-.267 1.049-.706 0-1.07-2.334-.428-2.334-2.27 0-.92.75-1.648 2.195-1.648.31 0 .674.042.995.096l-.032.932a3.736 3.736 0 00-1.039-.15c-.63 0-.941.257-.941.663 0 1.028 2.355.504 2.355 2.27 0 .995-.889 1.723-2.312 1.723M88.87 10.134c-1.134 0-1.477-.439-1.477-1.627v-2.9h-1.017v-.889h1.017V3.027l1.135-.31v2.001h1.402v.888H88.54v2.548c0 .792.16 1.006.695 1.006.235 0 .493-.032.696-.085v.942c-.31.064-.706.117-1.06.117M91.161 10.038h1.146v-5.32H91.16v5.32zm.578-6.112a.729.729 0 01-.738-.717c0-.396.331-.718.738-.718a.72.72 0 01.728.718.726.726 0 01-.728.717zM95.678 10.134c-1.135 0-1.477-.439-1.477-1.627v-2.9h-1.016v-.889H94.2V3.027l1.134-.31v2.001h1.403v.888h-1.391v2.548c0 .792.16 1.006.695 1.006.235 0 .493-.032.696-.085v.942a5.54 5.54 0 01-1.06.117M101.34 10.038c0-.279.022-.739.075-1.038l-.01-.011c-.31.685-.953 1.156-1.852 1.156-1.21 0-1.584-.76-1.584-1.702V4.718h1.134v3.425c0 .664.183 1.05.792 1.05.804 0 1.392-.847 1.392-1.906V4.718h1.146v5.32h-1.093zM105.804 10.134c-1.135 0-1.477-.439-1.477-1.627v-2.9h-1.016v-.889h1.016V3.027l1.135-.31v2.001h1.402v.888h-1.391v2.548c0 .792.16 1.006.696 1.006.235 0 .492-.032.695-.085v.942c-.31.064-.707.117-1.06.117M113.746 5.639a3.868 3.868 0 00-.846-.097c-.91 0-1.53.557-1.53 1.991 0 1.07.332 1.67 1.059 1.67.846 0 1.317-1.006 1.317-1.916V5.639zm.053 4.4c0-.28.022-.697.075-.997h-.021c-.289.653-.91 1.103-1.734 1.103-1.306 0-1.96-.963-1.96-2.505 0-1.83 1.06-3.008 2.784-3.008.257 0 .514.022.803.043V2.224h1.135v7.814h-1.082zM119.922 10.038c0-.279.022-.739.075-1.038l-.01-.011c-.31.685-.953 1.156-1.853 1.156-1.209 0-1.584-.76-1.584-1.702V4.718h1.135v3.425c0 .664.182 1.05.792 1.05.803 0 1.391-.847 1.391-1.906V4.718h1.146v5.32h-1.092zM127.95 10.124c-2.419 0-3.307-1.563-3.307-3.49 0-2.248 1.135-3.885 3.564-3.885.535 0 1.092.085 1.595.203l-.128 1.07a5.314 5.314 0 00-1.563-.246c-1.509 0-2.194 1.156-2.194 2.665 0 1.68.717 2.633 2.29 2.633.493 0 1.124-.139 1.521-.331l.138 1.038a5.367 5.367 0 01-1.915.343M132.959 5.456c-.643 0-1.092.472-1.188 1.189h2.258c.022-.729-.396-1.189-1.07-1.189m2.184 1.991h-3.394c-.032 1.231.515 1.788 1.574 1.788.546 0 1.113-.129 1.552-.342l.107.91c-.535.224-1.188.342-1.841.342-1.66 0-2.57-.857-2.57-2.73 0-1.605.879-2.804 2.43-2.804 1.52 0 2.174 1.038 2.174 2.301 0 .15-.011.332-.032.535M139.189 5.735c-1.06-.193-1.574.546-1.574 2.141v2.162h-1.145v-5.32h1.092c0 .3-.032.77-.107 1.178h.02c.237-.718.772-1.381 1.767-1.285l-.053 1.124zM142.775 10.038h-1.167l-1.991-5.32h1.263l.995 2.815c.129.364.246.739.343 1.092h.01c.087-.332.193-.707.31-1.049l1.018-2.858h1.231l-2.012 5.32zM147.462 5.456c-.642 0-1.091.472-1.188 1.189h2.259c.021-.729-.396-1.189-1.07-1.189m2.183 1.991h-3.393c-.032 1.231.514 1.788 1.574 1.788.545 0 1.112-.129 1.552-.342l.107.91c-.536.224-1.189.342-1.842.342-1.659 0-2.569-.857-2.569-2.73 0-1.605.878-2.804 2.43-2.804 1.52 0 2.173 1.038 2.173 2.301 0 .15-.01.332-.032.535M153.788 7.63c-1.67 0-2.033.503-2.033.963 0 .396.278.653.727.653.782 0 1.306-.75 1.306-1.51V7.63zm.076 2.408c0-.343.01-.696.053-.985l-.01-.01c-.258.631-.921 1.102-1.767 1.102-.91 0-1.488-.514-1.488-1.36 0-1.22 1.22-1.926 3.136-1.926v-.343c0-.663-.278-1.006-1.113-1.006-.492 0-1.134.15-1.584.428l-.107-.974a5.305 5.305 0 011.873-.353c1.627 0 2.077.707 2.077 1.798v2.173c0 .46.01 1.006.032 1.456h-1.102zM159.836 10.038c0-.279.022-.739.076-1.038l-.011-.011c-.31.685-.953 1.156-1.853 1.156-1.209 0-1.583-.76-1.583-1.702V4.718h1.134v3.425c0 .664.182 1.05.793 1.05.802 0 1.391-.847 1.391-1.906V4.718h1.146v5.32h-1.093zM75.64 18.302c-.642 0-1.092.471-1.188 1.188h2.258c.022-.728-.396-1.188-1.07-1.188m2.183 1.99H74.43c-.032 1.232.514 1.788 1.574 1.788.546 0 1.113-.128 1.552-.342l.107.91c-.535.225-1.188.343-1.84.343-1.66 0-2.57-.857-2.57-2.73 0-1.605.877-2.804 2.43-2.804 1.52 0 2.173 1.038 2.173 2.3 0 .15-.011.332-.033.536M80.853 22.98c-1.135 0-1.477-.44-1.477-1.628v-2.9h-1.017v-.889h1.017v-1.69l1.134-.312v2.002h1.402v.889h-1.39V21c0 .792.16 1.005.695 1.005.235 0 .492-.032.695-.085v.942c-.31.064-.706.118-1.06.118M88.794 18.484a3.871 3.871 0 00-.846-.096c-.91 0-1.53.556-1.53 1.99 0 1.071.331 1.67 1.059 1.67.846 0 1.317-1.006 1.317-1.916v-1.648zm.053 4.4a6.4 6.4 0 01.076-.996H88.9c-.29.653-.91 1.102-1.734 1.102-1.306 0-1.959-.963-1.959-2.504 0-1.83 1.06-3.008 2.783-3.008.257 0 .514.021.803.042v-2.45h1.135v7.813h-1.082zM93.558 18.302c-.643 0-1.093.471-1.189 1.188h2.259c.022-.728-.396-1.188-1.07-1.188m2.183 1.99h-3.393c-.032 1.232.514 1.788 1.574 1.788a3.67 3.67 0 001.552-.342l.106.91c-.535.225-1.188.343-1.84.343-1.66 0-2.57-.857-2.57-2.73 0-1.605.878-2.804 2.43-2.804 1.52 0 2.173 1.038 2.173 2.3 0 .15-.01.332-.032.536M99.402 22.883h1.146V15.07h-1.146zM104.979 20.475c-1.67 0-2.034.503-2.034.963 0 .397.279.653.728.653.781 0 1.306-.75 1.306-1.509v-.107zm.074 2.408c0-.342.012-.695.054-.985l-.01-.01c-.257.631-.92 1.103-1.766 1.103-.91 0-1.488-.514-1.488-1.36 0-1.22 1.22-1.927 3.136-1.927v-.342c0-.664-.278-1.006-1.113-1.006-.493 0-1.135.15-1.585.427l-.106-.973a5.305 5.305 0 011.873-.353c1.627 0 2.076.706 2.076 1.797v2.174c0 .46.011 1.006.032 1.455h-1.103zM117.128 22.883l-.567-3.842c-.118-.771-.172-1.296-.225-1.767h-.022c-.085.407-.192.878-.374 1.413l-1.36 4.196h-1.209l-1.295-3.896c-.193-.567-.374-1.188-.46-1.713h-.022c-.043.621-.118 1.189-.192 1.873l-.461 3.736h-1.188l1.081-7.225h1.391l1.392 4.175c.172.524.31 1.006.396 1.477h.021c.108-.536.225-.9.396-1.435l1.424-4.217h1.403l1.102 7.225h-1.23zM121.742 18.42c-.696 0-1.37.535-1.37 1.755 0 1.2.47 1.83 1.36 1.83.738 0 1.358-.577 1.358-1.808 0-1.135-.438-1.777-1.348-1.777m-.118 4.57c-1.477 0-2.44-.824-2.44-2.697 0-1.606 1.038-2.837 2.654-2.837 1.423 0 2.43.793 2.43 2.666 0 1.638-1.07 2.869-2.644 2.869M127.468 18.302c-.642 0-1.091.471-1.187 1.188h2.258c.022-.728-.396-1.188-1.07-1.188m2.183 1.99h-3.393c-.032 1.232.514 1.788 1.574 1.788.545 0 1.113-.128 1.552-.342l.107.91c-.536.225-1.189.343-1.841.343-1.66 0-2.57-.857-2.57-2.73 0-1.605.879-2.804 2.43-2.804 1.52 0 2.173 1.038 2.173 2.3 0 .15-.01.332-.032.536M130.98 22.883h1.145V15.07h-1.145zM133.795 22.883h1.145V15.07h-1.145zM138.462 18.302c-.643 0-1.092.471-1.188 1.188h2.258c.022-.728-.396-1.188-1.07-1.188m2.183 1.99h-3.393c-.032 1.232.514 1.788 1.574 1.788a3.67 3.67 0 001.552-.342l.107.91c-.536.225-1.188.343-1.841.343-1.66 0-2.57-.857-2.57-2.73 0-1.605.879-2.804 2.43-2.804 1.52 0 2.173 1.038 2.173 2.3 0 .15-.01.332-.032.536M145.954 16.793l-.428-.653 1.68-1.178.515.782-1.767 1.049zm.311 1.509c-.642 0-1.092.471-1.188 1.188h2.259c.02-.728-.397-1.188-1.07-1.188zm2.184 1.99h-3.393c-.032 1.232.513 1.788 1.573 1.788.546 0 1.113-.128 1.552-.342l.108.91c-.536.225-1.19.343-1.842.343-1.66 0-2.569-.857-2.569-2.73 0-1.605.878-2.804 2.43-2.804 1.52 0 2.173 1.038 2.173 2.3 0 .15-.01.332-.032.536zM152.238 18.398c-.857 0-1.317 1.007-1.317 1.917v1.637c.247.075.514.107.835.107.91 0 1.531-.557 1.531-1.99 0-1.072-.332-1.67-1.05-1.67m-.513 4.56c-.3 0-.524-.012-.803-.065v2.601h-1.145v-7.932h1.081c0 .279-.01.707-.064.996h.021c.3-.674.91-1.102 1.724-1.102 1.263 0 1.958.898 1.958 2.504 0 1.874-.995 2.997-2.772 2.997M155.696 22.884h1.145v-5.32h-1.145v5.32zm.578-6.113a.729.729 0 01-.739-.717.73.73 0 01.739-.717.72.72 0 01.728.717.726.726 0 01-.728.718zM161.84 22.883v-3.425c0-.664-.182-1.049-.792-1.049-.803 0-1.391.845-1.391 1.906v2.568h-1.147v-5.32h1.093a7 7 0 01-.075 1.039l.01.01c.311-.685.953-1.155 1.852-1.155 1.21 0 1.585.76 1.585 1.702v3.724h-1.135zM164.645 22.884h1.145v-5.32h-1.145v5.32zm.577-6.113a.729.729 0 01-.738-.717.73.73 0 01.738-.717.72.72 0 01.728.717.726.726 0 01-.727.718zM169.418 18.302c-.642 0-1.092.471-1.188 1.188h2.259c.021-.728-.396-1.188-1.07-1.188zm.428-1.51l-1.765-1.038.524-.803 1.68 1.189-.439.653zm1.756 3.5h-3.393c-.032 1.232.514 1.788 1.574 1.788.546 0 1.113-.128 1.551-.342l.107.91c-.535.225-1.188.343-1.84.343-1.66 0-2.57-.857-2.57-2.73 0-1.605.878-2.804 2.43-2.804 1.52 0 2.173 1.038 2.173 2.3 0 .15-.01.332-.032.536zM175.649 18.58c-1.06-.192-1.574.546-1.574 2.141v2.162h-1.145v-5.32h1.091c0 .3-.032.771-.107 1.178h.022c.235-.717.77-1.381 1.766-1.284l-.053 1.123zM178.475 18.302c-.643 0-1.093.471-1.19 1.188h2.26c.02-.728-.396-1.188-1.07-1.188m2.183 1.99h-3.393c-.032 1.232.514 1.788 1.573 1.788.547 0 1.114-.128 1.552-.342l.107.91c-.535.225-1.188.343-1.84.343-1.66 0-2.57-.857-2.57-2.73 0-1.605.878-2.804 2.43-2.804 1.52 0 2.173 1.038 2.173 2.3 0 .15-.01.332-.032.536M67.167 22.883h.456V2.813h-.456z"/>
    </g>
</svg>
