<svg id="Calque_1" data-name="Calque 1" xmlns="http://www.w3.org/2000/svg" viewBox="0 0 743.31 700.2">
    <defs>
        <style>
            .cls-1{fill:#00377c}.cls-2{fill:#fff}
        </style>
    </defs>
    <path class="cls-1" d="M692.62 400.11c0 173.65-140.78 314.45-314.44 314.46S63.73 573.78 63.72 400.12 204.5 85.67 378.17 85.67s314.45 140.77 314.45 314.44" transform="translate(-28 -50)"/>
    <path class="cls-1" d="M408 748.9A350.08 350.08 0 11549.11 94.69c27.89 15.59 25.59 16.49 25.09 18.81a2.72 2.72 0 01-2.42 2.11c-1.88.18-2.56-1.63-26.32-14.21a338.92 338.92 0 00-188-38.23 344.39 344.39 0 00-85.08 18.48c-85.41 30.27-154 91.66-193.2 172.83S34.88 427 64.85 511.5c51 143.82 193.53 235 346.75 221.8a342.18 342.18 0 00284.07-204c10.65-24.6 10.26-25 12.25-25.14a2.72 2.72 0 012.38 1.08c1.09 1.47 2.3 1.6-8 26.84a350.55 350.55 0 01-294.25 216.81z" transform="translate(-28 -50)"/>
    <path class="cls-2" d="M270.17 302.72q13.21-2.93 15.88-11.9 2.82-9-2.3-32.08-5.52-24.81-11.95-33.16t-18.12-5.76l-1.81.41zm-35.46-91.46l17.81-3.94a45.63 45.63 0 0114.08-1.23 22.38 22.38 0 0110.55 4.15q7.55 5.34 12.47 15.47 4.88 9.78 9.15 29.1 3.93 17.73 3.56 29.55-.4 11.31-5.55 18.37-6.28 8.75-26.6 13.25l-11.66 2.6zM357 244.81q-6.18-27.87-10.69-36.42t-12.24-6.91q-7.74 1.71-8.43 10.69t5 34.61q5.22 23.55 9.89 32.09 4.62 8 12.06 6.36 7.29-1.62 8.23-10.28T357 244.81m14.82-4.89q6.3 28.43 2.62 41.78t-18.54 16.66q-15.65 3.45-24.89-8-9.1-11.17-16.23-43.28-6.35-28.64-2.72-41.91t18.76-16.7q13.45-3 22.05 4.81 5.68 5.23 10.17 16.19 4.26 10.14 8.78 30.43M378.38 179.42l13.5-3L415.75 216a401.48 401.48 0 0119.63 36.26q-4.5-12-7.56-21.94t-5-18.8l-8.89-40 14.47-3.21 23.79 107.3-13.52 3-26.88-44.72q-3.72-6.24-7.26-12.9c-2.37-4.44-8.8-18.22-9.36-19.37.41 1.19 4.92 15.91 4.92 15.91s4.2 14.71 4.48 15.77 12 50.22 12 50.22l-14.32 3.17zM347 345.33q-2.64-8.58-4.71-11a5.28 5.28 0 00-5.63-1.95 5.16 5.16 0 00-4.25 4.14q-.88 3.06.35 11.93zm3.77 14.25l10.48-2.31q3.11 19.8-13.32 23.44a19.74 19.74 0 01-8.75.19 14.5 14.5 0 01-6.93-3.83 25.93 25.93 0 01-5.35-8.08 66 66 0 01-3.9-12.5q-3.27-14.67-.33-22.72T335 323.61q18.28-4 24.79 25.27l.29 1.28-25.71 5.71q3.94 17.76 11.7 16 7.07-1.56 4.67-12.33M367.48 317.37l11.25-2.49 1.4 6.36c2.15-5.56 5.76-8.9 10.87-10 4.93-1.09 8.86-.11 11.74 2.94q2.46 2.63 4.37 11.23l8.72 39.38-11.23 2.5-8.26-37c-.84-3.75-1.93-6.3-3.25-7.64s-3.19-1.77-5.59-1.24a8 8 0 00-3.12 1.34 5 5 0 00-1.71 2.46 10.46 10.46 0 00-.42 3.82 33.26 33.26 0 00.81 5.49l7.94 35.8-11.24 2.5zM159.74 446.33l2.88 13q-6.17-1.47-9.91-.64a15.43 15.43 0 00-8.26 4.49 18.77 18.77 0 00-4.35 9.17 50.64 50.64 0 00-.58 14.16 143.5 143.5 0 003.1 19.4q8.81 39.75 29.17 35.23a22.14 22.14 0 008.06-4.12l2.94 13.28a24 24 0 01-11 5.51q-32.59 7.22-44.39-46-6.4-28.81-1.57-44.59t21.25-19.45a25.5 25.5 0 0112.66.56M226.77 490.3c-4.12-18.59-7.69-30.7-10.7-36.41s-7.1-8.06-12.25-6.91-7.94 4.7-8.42 10.69 1.27 17.55 5 34.6q5.25 23.57 9.88 32.08 4.62 8 12.06 6.37t8.23-10.28q.94-8.6-3.85-30.14m14.82-4.88q6.3 28.41 2.63 41.78t-18.56 16.64q-15.61 3.48-24.87-8-9.12-11.18-16.24-43.29-6.33-28.63-2.72-41.9t18.8-16.65q13.47-3 22.07 4.8 5.67 5.2 10.15 16.2 4.29 10.14 8.79 30.43M248.13 424.91l13.47-3 23.87 39.63a397.25 397.25 0 0119.64 36.24q-4.49-12.06-7.56-21.93t-5-18.79l-8.87-40 14.45-3.2 23.79 107.3-13.52 3-26.87-44.71q-3.74-6.26-7.28-12.89c-2.36-4.44-8.8-18.23-9.34-19.37.4 1.17 4.91 15.89 4.91 15.89s4.21 14.72 4.47 15.79 12 50.21 12 50.21l-14.32 3.17zM472.93 375.07l13.48-3 23.87 39.63a398.37 398.37 0 0119.64 36.3c-3-8-5.53-15.34-7.56-21.93s-3.74-12.86-5.05-18.79l-8.87-40 14.45-3.2 23.79 107.3-13.51 3-26.88-44.72c-2.49-4.16-4.9-8.46-7.27-12.89s-8.81-18.22-9.35-19.37c.4 1.18 4.92 15.9 4.92 15.9s4.2 14.71 4.47 15.78 12 50.21 12 50.21l-14.31 3.17z" transform="translate(-28 -50)"/>
    <path class="cls-2" d="M292.04 358.96l38.63-8.57 2.72 12.23-24.18 5.37 7.52 33.9 21.82-4.83 2.71 12.24-21.82 4.83 10.85 48.92-14.45 3.21-23.8-107.3zM346.5 346.88l14.44-3.2 23.8 107.3-14.45 3.21-23.79-107.31z"/>
    <path class="cls-2" d="M456 457.71l-7-16.39q-7-16.72-13.47-36.1 1.17 9.9 1.84 20.12c.44 6.83.8 14.1 1 21.83l.43 14.35zm-30.51-72.13l11.26-2.5 46.8 102.21-14.32 3.17-8.67-20-21.27 4.71.55 21.83-13.91 3.08zM585.91 351.84l2.88 13c-4.1-1-7.41-1.19-9.91-.63a15.39 15.39 0 00-8.26 4.49 18.77 18.77 0 00-4.34 9.17 50.55 50.55 0 00-.59 14.15 144.23 144.23 0 003.1 19.42q8.82 39.72 29.18 35.22a22.62 22.62 0 008.06-4.12L609 455.8a24.2 24.2 0 01-11 5.51q-32.61 7.2-44.4-46-6.37-28.77-1.52-44.58t21.23-19.43a25.26 25.26 0 0112.66.55" transform="translate(-28 -50)"/>
    <path class="cls-2" d="M573.1 296.64l38.44-8.53 2.71 12.24-23.99 5.32 7.54 33.98 21.27-4.71 2.71 12.22-21.27 4.72 8.13 36.64 23.97-5.33 2.71 12.23-38.43 8.52-23.79-107.3z"/>
    <path class="cls-2" d="M235.36 591.15l-5.07 6.28a14.94 14.94 0 00-.72-5.06 7.2 7.2 0 00-2.34-3.14 7.44 7.44 0 00-5.95-1.71 8.37 8.37 0 00-5.55 3.26 8.57 8.57 0 00-2.12 6.11 7.34 7.34 0 002.9 5.38 7.74 7.74 0 003.6 1.7 15.53 15.53 0 005.2-.38l-5 6.24a16 16 0 01-7-3.16 14.15 14.15 0 01-5.47-9.48 13.16 13.16 0 013-10.26 13.35 13.35 0 019.49-5.12 14.06 14.06 0 0110.48 3.26 15.14 15.14 0 014.55 6.08M239.69 608.5a8.87 8.87 0 00-1.45 6.42 8.18 8.18 0 009.71 6 9.81 9.81 0 006.39-10.47 7.4 7.4 0 00-3.65-4.94 7.29 7.29 0 00-6-1 8.42 8.42 0 00-5 4m-5.25-3.34A13.17 13.17 0 01243 599a14.41 14.41 0 0117 10.41 14.09 14.09 0 01-10.34 16.9 14 14 0 01-10.66-1.85 13.4 13.4 0 01-6.35-8.63 13.65 13.65 0 011.82-10.67M270.28 611.66l5.62 2.34-.93 2.25a12.83 12.83 0 013.72-1.16 7.24 7.24 0 013.33.64 8.1 8.1 0 015.05 6.27 9.13 9.13 0 018.65-.64q8.22 3.39 4.12 13.36l-6.2 15-5.64-2.32 5.56-13.52q1.44-3.5 1.19-5.29a3.35 3.35 0 00-2.27-2.66 4 4 0 00-4.11.36c-1.18.87-2.31 2.59-3.37 5.19L279.83 644l-5.65-2.33 5.53-13.43q2.67-6.51-1.07-8a4.05 4.05 0 00-4.19.35c-1.22.88-2.34 2.6-3.4 5.14l-5.16 12.57-5.62-2.3zM314.91 616.73a4 4 0 017.24-.9 3.72 3.72 0 01.4 3 3.84 3.84 0 01-1.85 2.42 3.76 3.76 0 01-3 .41 4 4 0 01-2.79-4.9m3.92 12.38L312 654.52l-5.87-1.58 6.87-25.41z" transform="translate(-28 -50)"/>
    <path class="cls-2" d="M307.48 588.49l-3.8 20.3-5.97-1.13 3.79-20.28-2.55-.48 1.04-5.57 2.55.47 1.77-9.48 5.97 1.12-1.76 9.48 4.65.87-1.05 5.57-4.64-.87z"/>
    <path class="cls-2" d="M365.52 645.89c-.61-3.29-2.52-5.06-5.76-5.29a6 6 0 00-3.94 1 6.18 6.18 0 00-1.47 1.42 7.14 7.14 0 00-1 2zm5.84 5.43l-18.8-1.4a8 8 0 001.72 5.3 6.39 6.39 0 004.63 2.23 6.18 6.18 0 003.82-.79 15.21 15.21 0 003.62-3.74l4.91 3.24a21.1 21.1 0 01-2.77 3.27 13.32 13.32 0 01-3 2.17 11.61 11.61 0 01-3.37 1.11 16 16 0 01-3.83.15 12.39 12.39 0 01-9.15-4.47c-2.18-2.72-3.11-6.15-2.81-10.34a14.57 14.57 0 014.2-9.82 13.18 13.18 0 0118.39 1.25q3.06 3.91 2.58 10.41zM400.32 636.8l.39 8.06a14.55 14.55 0 00-3.9-3.29 7.12 7.12 0 00-3.85-.79 7.47 7.47 0 00-5.57 2.67 8.44 8.44 0 00-2 6.13 8.64 8.64 0 002.48 6 7.44 7.44 0 005.76 2.11 7.83 7.83 0 003.81-1.14 15.31 15.31 0 003.64-3.75l.38 8a15.89 15.89 0 01-7.3 2.27 14.21 14.21 0 01-10.39-3.44 13.93 13.93 0 01-.91-19.78 14.06 14.06 0 0110-4.55 15.24 15.24 0 017.44 1.51M405.82 615.62l6-1.08 3.86 21.15a10.5 10.5 0 016.52-4.16 9.22 9.22 0 017.54 1.56c1.79 1.37 3 3.86 3.67 7.48l2.92 15.87-6 1.09-2.81-15.3a7.38 7.38 0 00-1.93-4.31 4.29 4.29 0 00-3.8-.74c-2.09.38-3.45 1.3-4.05 2.74s-.6 3.8 0 7l2.26 12.5-6 1.1zM448.5 639.48a9.16 9.16 0 003.83 5.24 6.69 6.69 0 005.73.66 7 7 0 004.47-3.9 10 10 0 00-3.78-11.62 6.89 6.89 0 00-5.86-.56 6.77 6.77 0 00-4.26 3.89 8.71 8.71 0 00-.13 6.29m9.67-16.89l5.8-1.9 8.15 25-5.81 1.89-.85-2.62a11.67 11.67 0 01-16.4 4.88 14.69 14.69 0 01-6.47-8.46 14.24 14.24 0 01.31-10.48 11.39 11.39 0 017.2-6.49 11.16 11.16 0 019 1zM473.69 616.43l5.51-2.58 1 2.12a11.46 11.46 0 011.66-3.44 6.74 6.74 0 012.55-1.94 9.76 9.76 0 015.22-.72l-.16 6.22a5.69 5.69 0 00-3.58.31c-3 1.41-3.43 4.38-1.32 8.92l5.82 12.34-5.51 2.58z" transform="translate(-28 -50)"/>
    <path class="cls-2" d="M475.83 557.17l10.45 17.79-5.25 3.08-10.44-17.8-2.23 1.31-2.88-4.89 2.24-1.32-4.88-8.31 5.24-3.07 4.88 8.31 4.08-2.39 2.87 4.89-4.08 2.4z"/>
    <path class="cls-2" d="M530.48 593.73q-3.91-3.15-7.82-.26a6 6 0 00-1.47 1.5 5.6 5.6 0 00-.85 1.84 6 6 0 00-.19 2 6.86 6.86 0 00.51 2.15zm8 .28l-15.16 11.22a8 8 0 004.76 2.9 6.48 6.48 0 005-1.33 6.13 6.13 0 002.37-3.1 15.12 15.12 0 00.3-5.19l5.83-.74a20.49 20.49 0 01.05 4.27 13.45 13.45 0 01-.87 3.61 11.8 11.8 0 01-1.82 3 15 15 0 01-2.81 2.6 12.38 12.38 0 01-9.85 2.59q-5.13-.95-8.88-6a14.58 14.58 0 01-3.22-10.18 12 12 0 015.17-8.56 11.79 11.79 0 019.58-2.48q4.89 1 8.75 6.2zM553.63 592a3.76 3.76 0 015.52-5.1 3.66 3.66 0 011 2.71 3.57 3.57 0 01-1.19 2.6 3.69 3.69 0 01-5.34-.21M563 568.51a8.9 8.9 0 006.1 2.49 8.18 8.18 0 007.48-8.61 9.9 9.9 0 00-9.27-8 8.11 8.11 0 00-7.43 8.59 8.49 8.49 0 003.12 5.56m-4.14 4.62a13 13 0 01-4.67-9.42 14.4 14.4 0 0113.07-15.07 14.1 14.1 0 0115 13 13.91 13.91 0 01-3.59 10.21 13.35 13.35 0 01-9.55 4.84 13.56 13.56 0 01-10.22-3.55M572.05 536.63l3.41-5 1.95 1.31a11.37 11.37 0 01-.33-3.81 6.82 6.82 0 011.19-3 9.91 9.91 0 014.11-3.29l3 5.42a5.88 5.88 0 00-2.92 2.1q-2.78 4.14 3.45 8.33l11.31 7.63-3.4 5zM604.91 507.09a8.89 8.89 0 00-6.39-1 6.82 6.82 0 00-4.53 3.65 6.57 6.57 0 00-.23 6 10.54 10.54 0 0010.5 5.42 6.55 6.55 0 004.73-3.7 6.65 6.65 0 00.29-6.05 9.14 9.14 0 00-4.37-4.36m13.75.54c1.1.58 2.06 1.11 2.86 1.62a22.77 22.77 0 012.07 1.44 11.16 11.16 0 013.36 4.6c1.35 3.38 1.06 6.9-.85 10.6a13.11 13.11 0 01-6.51 6.4 11.66 11.66 0 01-9.05-.12l2.8-5.42a7 7 0 003.2.34 6.56 6.56 0 004.72-3.77q3-5.91-4.19-9.67L613.8 512a11.59 11.59 0 01-8 15.16 14.33 14.33 0 01-10.35-1.46 15.17 15.17 0 01-7.21-7.34 11.18 11.18 0 01.4-10.08 10.67 10.67 0 017.08-5.65l-2.72-1.39 2.79-5.41z" transform="translate(-28 -50)"/>
    <path d="M665.17 301.05A106.14 106.14 0 10559 194.91a106.14 106.14 0 00106.17 106.14" transform="translate(-28 -50)" fill="#2aab8e"/>
    <path class="cls-2" d="M649.94 217.83q0 14.89 9 23.65t23.17 8.76q14.17 0 23.33-8.91t9.16-23.81V172.2q0-14.89-9-23.73t-23.17-8.83q-14.16 0-23.32 9t-9.16 23.88zm20.63-46.09q0-6.28 3.15-9.83a12.11 12.11 0 0117.09 0q3.16 3.54 3.16 9.83v46.39q0 6.3-3.16 9.83a12.08 12.08 0 01-17.09 0q-3.15-3.53-3.15-9.83zM584.35 172.36h19.4v-2.77c0-3.68.93-6.58 2.77-8.68a10.24 10.24 0 0114.78 0q2.78 3.15 2.78 8.53v4.45q0 5.38-2.85 8.53a10.14 10.14 0 01-7.93 3.15H605v15.67h8.32q6 0 9.16 3.61t3.15 9.75v4.15q0 6.3-3.15 9.83a12.11 12.11 0 01-17.09 0q-3.17-3.54-3.16-9.83v-3.38h-19.4v5.22q0 13.22 9 21.43t22.56 8.22q13.39 0 22.63-8.22a26.82 26.82 0 009.24-21v-4.12q0-16-13.55-23.81 12-8.29 12-23v-2.61q0-12.28-8.55-20t-21.48-7.76q-13.08 0-21.7 8.14t-8.63 20.89zM735.24 150.32a20.8 20.8 0 012.64-3.64 3.52 3.52 0 012.56-1.07 2.74 2.74 0 012.08.84 3 3 0 01.8 2.19 3.29 3.29 0 01-.44 1.62 4.79 4.79 0 01-1 1.26 8.08 8.08 0 01-1.24.9 9.88 9.88 0 01-1 .54 3.64 3.64 0 01-.44.16l1.84 4.59.72-.24a8.08 8.08 0 001.74-.9 14.45 14.45 0 002-1.62 7.82 7.82 0 001.74-2.63 9.35 9.35 0 00.72-3.72 9 9 0 00-2.14-6.19 7.38 7.38 0 00-5.82-2.44 7.51 7.51 0 00-4.92 1.74 18.56 18.56 0 00-4 4.78 16 16 0 01-2.4 3.27 3.34 3.34 0 01-2.4 1 2.24 2.24 0 01-1.76-.78A2.85 2.85 0 01724 148a3.38 3.38 0 01.34-1.48 3.82 3.82 0 01.76-1.07 4.87 4.87 0 011-.72 5.76 5.76 0 01.78-.4l.34-.12-1.84-4.59-.64.19a7 7 0 00-1.5.8 13 13 0 00-1.8 1.48 7 7 0 00-1.52 2.48 9.8 9.8 0 00-.62 3.55 8.58 8.58 0 002.08 5.85 6.8 6.8 0 005.36 2.38q4.85 0 8.56-6.07m12.4 14.74v-5.15h-28v5.15h17.08l-17.08 8.11v5.51h28v-5.19h-17.8zm-28 23.76v5.35l28 8.59v-5.59l-6-1.64v-7.71l6-1.63v-5.91zm7.72 2.88l10.08-2.8v5.59z" transform="translate(-28 -50)"/>
</svg>
