<svg width="90" height="73" viewBox="0 0 90 73" xmlns="http://www.w3.org/2000/svg">
    <g fill="none" fill-rule="evenodd">
        <path d="M0 .67h80.58v64.768H0z"/>
        <path d="M48.347 58.67c-3.723 1.792-6.669 2.89-7.82 3.301-4.552-1.623-37.158-14.11-37.158-38.402 0-10.77 8.758-19.53 19.523-19.53a19.53 19.53 0 0116.231 8.667c.312.466.837.745 1.398.745h.001c.562 0 1.088-.28 1.4-.747A19.496 19.496 0 0158.14 4.04c9.167 0 17.202 6.493 19.108 15.443a1.684 1.684 0 103.294-.7C78.31 8.287 68.889.669 58.14.669c-6.86 0-13.292 3.06-17.62 8.286A22.878 22.878 0 0022.892.67C10.269.67 0 10.943 0 23.57 0 51.97 38.369 64.822 40.003 65.355c.17.057.348.083.524.083.176 0 .352-.026.524-.083.15-.05 3.737-1.232 8.758-3.647a1.685 1.685 0 00-1.462-3.037" fill="#002D5C"/>
        <path d="M48.093 22.524h41.718v50.274H48.093z"/>
        <path d="M68.951 60.875c-4.67 0-9.063-1.82-12.367-5.125a17.361 17.361 0 01-5.122-12.367 17.363 17.363 0 015.12-12.367 17.374 17.374 0 0112.37-5.122c9.645 0 17.491 7.844 17.491 17.489s-7.846 17.492-17.492 17.492m-.004-38.35c-5.57 0-10.808 2.169-14.746 6.109a20.724 20.724 0 00-6.108 14.749 20.728 20.728 0 006.108 14.751 20.696 20.696 0 0012.87 6.02c-.722 3.02-3.437 5.274-6.674 5.274a1.685 1.685 0 000 3.37c5.098 0 9.324-3.75 10.1-8.631 10.782-.797 19.315-9.803 19.315-20.784.002-11.501-9.357-20.859-20.865-20.859" fill="#EE5A47"/>
        <path d="M70.471 45.405c-.81.81-2.22.817-3.034 0a2.134 2.134 0 01-.629-1.513c0-.573.224-1.112.63-1.518.548-.548 3.27-1.916 6.34-3.308-1.39 3.072-2.76 5.791-3.307 6.339m7.75-10.78a1.688 1.688 0 00-1.841-.364c-2.251.936-9.717 4.123-11.325 5.728a5.484 5.484 0 00-1.616 3.906 5.483 5.483 0 001.615 3.895 5.477 5.477 0 003.897 1.614 5.48 5.48 0 003.9-1.614c1.608-1.608 4.795-9.075 5.734-11.326a1.69 1.69 0 00-.364-1.839" fill="#EE5A47"/>
    </g>
</svg>
