<svg width="88" height="98" viewBox="0 0 88 98" xmlns="http://www.w3.org/2000/svg">
    <g fill="none" fill-rule="evenodd">
        <path d="M78.282 39.414c.032.577.055 1.152.055 1.736 0 8.608-3.344 16.68-9.422 22.764-.448.31-.73.824-.73 1.393v30.336a1.694 1.694 0 103.387 0v-29.6c6.554-6.691 10.154-15.503 10.154-24.892 0-1.644-.12-3.258-.34-4.842l-3.104 3.105zM42.516 5.655c-18.017 1.782-32.14 17.016-32.14 35.495v2.16L.2 62.316a1.695 1.695 0 001.492 2.495h8.682v12.908c0 5.797 4.717 10.516 10.515 10.516h14.906v7.41a1.694 1.694 0 003.39 0v-9.106c0-.935-.76-1.693-1.694-1.693H20.89c-3.93 0-7.127-3.198-7.127-7.127V63.114c0-.937-.757-1.693-1.694-1.693H4.522l9.04-16.886c.132-.246.201-.52.201-.8V41.15c0-16.827 12.94-30.681 29.387-32.15l-.634-3.345z" fill="#002D5C"/>
        <path d="M36.453.464h51.13v51.693h-51.13z"/>
        <path d="M65.309 48.05a2.467 2.467 0 01-4.206-1.742c0-.657.257-1.276.724-1.742l9.629-9.629a1.695 1.695 0 00-2.395-2.396L55.8 45.803a2.466 2.466 0 01-4.206-1.742c0-.656.258-1.275.723-1.74h.002l13.26-13.263a1.693 1.693 0 10-2.395-2.395L47.158 42.69a2.452 2.452 0 01-1.74.72h-.002a2.447 2.447 0 01-1.74-.72 2.443 2.443 0 01-.724-1.742c0-.656.258-1.276.725-1.741l2.764-2.766.002-.001h.002l13.258-13.258a1.695 1.695 0 00-2.395-2.397L44.05 34.044c0 .002 0 .002-.002.002-.932.93-2.554.932-3.484.003a2.455 2.455 0 01.002-3.483L58.43 12.7a1.695 1.695 0 00-2.395-2.397l-1.784 1.785-6.169-2.125c-1.19-.41-2.606-1.254-2.606-2.963a2.434 2.434 0 01.718-1.736c.465-.466 1.083-.722 1.806-.723l18.195-.691a17.834 17.834 0 0112.681 5.253c6.995 6.995 6.995 18.379 0 25.375L65.309 48.05zM42.773 9.827c.786 1.492 2.223 2.657 4.208 3.34 1.988.684 3.48 1.198 4.614 1.576L38.318 28.02c-.957.959-1.653 2.186-1.818 3.53a5.835 5.835 0 001.668 4.892 5.793 5.793 0 002.308 1.397 5.812 5.812 0 00.804 7.247 5.807 5.807 0 004.133 1.714h.004c1.12 0 2.186-.325 3.11-.909.282.858.74 1.65 1.396 2.309a5.834 5.834 0 004.135 1.711 5.838 5.838 0 004.024-1.619 5.822 5.822 0 001.35 2.152 5.833 5.833 0 004.136 1.713c1.498 0 2.994-.57 4.136-1.71l10.2-10.206 3.106-3.105.165-.164c6.928-6.897 8.512-17.717 3.406-26.053C80.498 4.256 73.66.466 66.133.463l-18.193.69a5.817 5.817 0 00-4.142 1.718c-.98.98-1.539 2.252-1.659 3.614l-.001.086a8.176 8.176 0 00.635 3.256z" fill="#EE5A47"/>
        <path d="M21.52 43.403a3.96 3.96 0 003.96 3.96 3.96 3.96 0 100-7.92 3.961 3.961 0 00-3.96 3.96" fill="#002D5C"/>
    </g>
</svg>
