<svg width="102" height="92" viewBox="0 0 102 92" xmlns="http://www.w3.org/2000/svg">
    <g fill="none" fill-rule="evenodd">
        <path d="M24.652.446h76.805v63.229H24.652z"/>
        <path d="M89.968 51.256c-.04.04-.08.085-.116.13l-5.405 5.4a7.792 7.792 0 00-2.16-4.162l-16.954-16.95c2.614-.48 5.065-1.801 7.216-3.956a1.672 1.672 0 10-2.37-2.364c-2.465 2.47-5.264 3.515-8.317 3.105-3.06-.41-6.34-2.292-9.489-5.44-.629-.628-1.74-.628-2.367 0l-9.61 9.617a8.095 8.095 0 01-11.404.326c-.767-.768-1.482-1.884-.527-2.839 3.153-3.155 22.189-22.185 22.189-22.187 5.248-5.252 12.23-8.142 19.657-8.144h.002c7.425 0 14.407 2.89 19.658 8.138 5.252 5.254 8.144 12.237 8.144 19.663 0 7.43-2.894 14.412-8.147 19.663zm-7.682 12.419v-.002l10.058-10.045c.043-.044.08-.09.12-.135 5.8-5.868 8.993-13.638 8.993-21.898.004-8.322-3.237-16.146-9.12-22.029-5.883-5.88-13.703-9.12-22.024-9.12h-.002c-7.221.001-14.06 2.444-19.588 6.93l-2.536 2.296-22.089 22.087c-2.107 2.105-1.895 5.145.527 7.571 3.182 3.187 10.514 5.287 16.135-.328l8.46-8.464c3.036 2.728 6.219 4.454 9.32 5.079L79.92 54.99a4.473 4.473 0 01.003 6.314l2.363 2.37z" fill="#EE5A47"/>
        <g>
            <path d="M0 .446h84.57v91.549H0z"/>
            <path d="M84.446 56.785a7.79 7.79 0 00-2.159-4.162L65.332 35.669l-4.79-.056L79.92 54.989a4.473 4.473 0 01.003 6.313c-1.037 1.04-2.494 1.503-3.99 1.237-.93-.167-1.767-.674-2.433-1.342L55.765 43.462a1.674 1.674 0 00-2.367 2.366l17.841 17.841a4.477 4.477 0 010 6.317 4.43 4.43 0 01-3.152 1.307h-.001a4.432 4.432 0 01-3.159-1.312h-.001l-17.84-17.838a1.672 1.672 0 10-2.366 2.366l17.727 17.728c.668.667 1.179 1.504 1.347 2.433.267 1.493-.196 2.954-1.238 3.995a4.47 4.47 0 01-6.31-.003L38.407 60.825a1.672 1.672 0 10-2.366 2.367l17.84 17.84a4.429 4.429 0 011.31 3.148c0 1.195-.467 2.32-1.311 3.164a4.474 4.474 0 01-6.318 0L11.604 51.392a2.244 2.244 0 00-.124-.138C.637 40.415.634 22.774 11.474 11.928 21.45 1.958 37.23 1.122 48.188 9.669l2.536-2.293C38.431-2.6 20.425-1.75 9.107 9.564-2.99 21.666-3.036 41.324 8.97 53.479c.04.05.082.098.128.143l36.098 36.09a7.807 7.807 0 005.529 2.284c2 0 4-.763 5.52-2.283a7.776 7.776 0 002.291-5.534c0-.313-.026-.622-.062-.927.31.036.62.06.931.06 1.999 0 3.997-.76 5.516-2.28a7.763 7.763 0 002.292-5.522c0-.313-.025-.622-.063-.929.308.036.618.061.93.061h.005c1.084 0 2.179-.173 3.16-.64 3.436-1.63 4.952-4.962 4.577-8.103a7.771 7.771 0 006.464-2.227v-.001a7.651 7.651 0 002.216-6.463l-.057-.423z" fill="#002D5C"/>
        </g>
    </g>
</svg>
