<svg width="104" height="85" viewBox="0 0 104 85" xmlns="http://www.w3.org/2000/svg">
    <g fill="none" fill-rule="evenodd">
        <path d="M13.77 34.761c-5.923 0-10.74 4.819-10.74 10.741 0 5.923 4.817 10.741 10.74 10.741 5.924 0 10.742-4.818 10.742-10.74 0-5.923-4.818-10.742-10.742-10.742m0 24.511C6.177 59.272 0 53.096 0 45.502c0-7.592 6.177-13.77 13.77-13.77s13.772 6.178 13.772 13.77c0 7.594-6.179 13.77-13.772 13.77" fill="#002D5C"/>
        <path d="M13.77 34.761c-5.923 0-10.74 4.819-10.74 10.741 0 5.923 4.817 10.741 10.74 10.741 5.924 0 10.742-4.818 10.742-10.74 0-5.923-4.818-10.742-10.742-10.742m0 24.511C6.177 59.272 0 53.096 0 45.502c0-7.592 6.177-13.77 13.77-13.77s13.772 6.178 13.772 13.77c0 7.594-6.179 13.77-13.772 13.77M58.883 40.889a4.618 4.618 0 00-4.613 4.614 4.619 4.619 0 004.613 4.614 4.62 4.62 0 004.614-4.614 4.619 4.619 0 00-4.614-4.614m0 12.257c-4.213 0-7.642-3.43-7.642-7.643 0-4.214 3.43-7.644 7.642-7.644 4.214 0 7.643 3.43 7.643 7.644s-3.429 7.643-7.643 7.643" fill="#002D5C"/>
        <path d="M0 84.713h103.855V0H0z"/>
        <path fill="#002D5C" d="M26.026 47.017h26.73v-3.03h-26.73zM45.535 72.459a4.6 4.6 0 00-3.262 1.35 4.585 4.585 0 00-1.352 3.263c0 1.23.479 2.39 1.35 3.26h.002a4.614 4.614 0 106.525-6.525 4.61 4.61 0 00-3.263-1.348m0 12.25a7.613 7.613 0 01-5.403-2.234 7.586 7.586 0 01-2.24-5.403c0-2.042.796-3.961 2.24-5.405 2.98-2.977 7.826-2.977 10.805 0 2.98 2.981 2.98 7.83.002 10.808a7.622 7.622 0 01-5.404 2.234"/>
        <path d="M76.576 29.326a1.513 1.513 0 01-1.07-2.586l5.118-5.12a1.515 1.515 0 012.142 2.141l-5.12 5.121a1.506 1.506 0 01-1.07.444M63.217 42.683a1.513 1.513 0 01-1.07-2.586l5.118-5.119a1.515 1.515 0 012.142 2.142l-5.12 5.12a1.506 1.506 0 01-1.07.443" fill="#EE5A47"/>
        <path d="M13.77 34.765a10.708 10.708 0 00-7.596 3.143c-4.187 4.187-4.187 11.001 0 15.19 4.19 4.188 11.003 4.188 15.192 0 4.188-4.189 4.188-11.003 0-15.19a10.708 10.708 0 00-7.596-3.143m0 24.5a13.725 13.725 0 01-9.736-4.025c-5.37-5.368-5.37-14.106 0-19.474 5.368-5.369 14.104-5.369 19.473 0 5.37 5.368 5.37 14.106 0 19.474a13.725 13.725 0 01-9.737 4.026" fill="#002D5C"/>
        <path d="M13.77 34.765a10.708 10.708 0 00-7.596 3.143c-4.187 4.187-4.187 11.001 0 15.19 4.19 4.188 11.003 4.188 15.192 0 4.188-4.189 4.188-11.003 0-15.19a10.708 10.708 0 00-7.596-3.143m0 24.5a13.725 13.725 0 01-9.736-4.025c-5.37-5.368-5.37-14.106 0-19.474 5.368-5.369 14.104-5.369 19.473 0 5.37 5.368 5.37 14.106 0 19.474a13.725 13.725 0 01-9.737 4.026M58.883 40.89a4.6 4.6 0 00-3.262 1.35 4.585 4.585 0 00-1.352 3.263c0 1.23.48 2.389 1.35 3.26l.002.002c1.744 1.744 4.781 1.743 6.526-.002a4.621 4.621 0 000-6.525 4.61 4.61 0 00-3.264-1.348m0 12.255a7.586 7.586 0 01-5.403-2.24 7.58 7.58 0 01-2.239-5.402c0-2.042.795-3.962 2.24-5.406 2.978-2.976 7.826-2.976 10.805 0 2.98 2.982 2.98 7.83.001 10.808a7.589 7.589 0 01-5.404 2.24" fill="#002D5C"/>
        <path fill="#002D5C" d="M40.266 74.14l-18.9-18.9 2.142-2.142 18.9 18.9z"/>
        <path d="M45.536 72.454a4.618 4.618 0 00-4.273 6.358 4.617 4.617 0 006.012 2.532 4.616 4.616 0 00-1.74-8.89m.01 12.26a7.656 7.656 0 01-7.088-4.76c-1.589-3.904.293-8.37 4.196-9.96a7.588 7.588 0 015.848.034 7.597 7.597 0 014.112 4.161c1.59 3.902-.293 8.37-4.197 9.96a7.597 7.597 0 01-2.87.565" fill="#002D5C"/>
        <path fill="#002D5C" d="M51.425 76.158l-1.146-2.803L83.846 59.62l1.146 2.803z"/>
        <path d="M89.952 34.93c-.836 0-1.514-.68-1.514-1.514v-7.24c0-.837.678-1.516 1.514-1.516s1.514.68 1.514 1.515v7.24c0 .835-.678 1.515-1.514 1.515M89.952 54.418c-.836 0-1.514-.68-1.514-1.514v-7.24c0-.836.678-1.515 1.514-1.515s1.514.679 1.514 1.515v7.24c0 .835-.678 1.514-1.514 1.514" fill="#EE5A47"/>
        <path d="M90.091 3.026a10.708 10.708 0 00-7.596 3.143c-4.187 4.187-4.187 11.001 0 15.19 4.19 4.188 11.003 4.188 15.192 0 4.188-4.189 4.188-11.003 0-15.19a10.708 10.708 0 00-7.596-3.143m0 24.5a13.725 13.725 0 01-9.736-4.025c-5.37-5.368-5.37-14.106 0-19.474 5.368-5.369 14.104-5.369 19.473 0 5.37 5.368 5.37 14.106 0 19.474a13.725 13.725 0 01-9.737 4.026" fill="#EE5A47"/>
        <path d="M90.091 54.09a4.618 4.618 0 00-4.614 4.612 4.619 4.619 0 004.614 4.614 4.618 4.618 0 004.613-4.614 4.617 4.617 0 00-4.613-4.613m0 12.256c-4.214 0-7.643-3.43-7.643-7.643 0-4.213 3.43-7.642 7.643-7.642 4.213 0 7.642 3.43 7.642 7.642 0 4.214-3.43 7.643-7.642 7.643" fill="#002D5C"/>
        <path d="M93.12 13.764a3.029 3.029 0 11-6.058 0 3.029 3.029 0 016.058 0" fill="#EE5A47"/>
    </g>
</svg>
