<svg width="233" height="241" viewBox="0 0 233 241" xmlns="http://www.w3.org/2000/svg">
    <g stroke="#73C4E6" stroke-width="13" fill="none" fill-rule="evenodd" stroke-linecap="round" stroke-linejoin="round">
        <path d="M81.13 15.992L212.478 63.8c10.367 3.774 15.704 15.236 11.934 25.594l-47.807 131.35c-3.77 10.358-15.227 15.708-25.594 11.934L19.662 184.87C9.306 181.1 3.959 169.634 7.729 159.276l47.807-131.35c3.77-10.357 15.236-15.704 25.594-11.934zM191.162 34.79l-13.66 37.53M116.105 7.472l-13.66 37.529"/>
        <path d="M160.794 118.127c-5.828-11.195-20.004-16.355-31.665-11.525l-7.923 3.29-3.954-7.613c-5.828-11.195-20.005-16.355-31.665-11.525-13.121 5.456-18.438 20.064-11.887 32.66l25.04 48.202 50.167-20.83c13.114-5.437 18.434-20.055 11.887-32.659z"/>
    </g>
</svg>
